/* XPM */
static char * rigth_xpm[] = {
"45 45 853 2",
"  	c #1E0E04",
". 	c #200F05",
"+ 	c #241206",
"@ 	c #231106",
"# 	c #1F0E04",
"$ 	c #190B02",
"% 	c #1F0F04",
"& 	c #1A0B01",
"* 	c #281000",
"= 	c #251207",
"- 	c #281408",
"; 	c #2C170A",
"> 	c #2A1609",
", 	c #261308",
"' 	c #1A0C02",
") 	c #393330",
"! 	c #737778",
"~ 	c #A7B2B2",
"{ 	c #B0C4C8",
"] 	c #B7CFD6",
"^ 	c #B0CFDB",
"/ 	c #A8CDDE",
"( 	c #9EC3D2",
"_ 	c #9EB8BE",
": 	c #969E9E",
"< 	c #423E3B",
"[ 	c #281509",
"} 	c #1C0D03",
"| 	c #45433F",
"1 	c #A9B1B1",
"2 	c #D4E2E3",
"3 	c #C5E1EA",
"4 	c #8FC4E0",
"5 	c #67ACDA",
"6 	c #519FDE",
"7 	c #3889D1",
"8 	c #3686D1",
"9 	c #2D81D4",
"0 	c #3287D2",
"a 	c #68ACE2",
"b 	c #9BC8E5",
"c 	c #9AB5BF",
"d 	c #7F8786",
"e 	c #302118",
"f 	c #8F9494",
"g 	c #DAE5E9",
"h 	c #B8DAE8",
"i 	c #9CC5DA",
"j 	c #66AAD5",
"k 	c #3687CD",
"l 	c #2E78C9",
"m 	c #2269C2",
"n 	c #2168C2",
"o 	c #1D61BC",
"p 	c #1C59B7",
"q 	c #1856AE",
"r 	c #1A55AF",
"s 	c #195BB9",
"t 	c #2970C3",
"u 	c #76A5D7",
"v 	c #9CB8CE",
"w 	c #656969",
"x 	c #201005",
"y 	c #291509",
"z 	c #2B170A",
"A 	c #9CA2A3",
"B 	c #D0E6EF",
"C 	c #7EBDDB",
"D 	c #76B6D8",
"E 	c #4A5266",
"F 	c #4D7BAB",
"G 	c #4C90D0",
"H 	c #1B65C0",
"I 	c #1857B2",
"J 	c #134CA6",
"K 	c #12449A",
"L 	c #0E398C",
"M 	c #0F388C",
"N 	c #0C3788",
"O 	c #0F3A8D",
"P 	c #0F3D8F",
"Q 	c #0F429B",
"R 	c #1B58AC",
"S 	c #8EACD1",
"T 	c #9CACB0",
"U 	c #221006",
"V 	c #231107",
"W 	c #291508",
"X 	c #5A595A",
"Y 	c #7FA1AF",
"Z 	c #778D93",
"` 	c #ADB3B4",
" .	c #CCE2EC",
"..	c #5FAEDA",
"+.	c #4AA3D9",
"@.	c #7BA6C1",
"#.	c #4D291F",
"$.	c #3E315C",
"%.	c #3975B1",
"&.	c #3691D5",
"*.	c #1D6CBA",
"=.	c #124CA0",
"-.	c #0D3B93",
";.	c #0A3184",
">.	c #0B2D78",
",.	c #0B2B71",
"'.	c #0C2F76",
").	c #0C3179",
"!.	c #0F4391",
"~.	c #3575B6",
"{.	c #639CCB",
"].	c #AAC8D3",
"^.	c #96A7A8",
"/.	c #1B0D02",
"(.	c #1C0D02",
"_.	c #3E3F3F",
":.	c #69A2D2",
"<.	c #A6D2EA",
"[.	c #D1E4EE",
"}.	c #66ABD8",
"|.	c #439EDC",
"1.	c #56A6DD",
"2.	c #48628C",
"3.	c #4F2A1D",
"4.	c #583437",
"5.	c #072973",
"6.	c #1B64B5",
"7.	c #2386D4",
"8.	c #2E92DB",
"9.	c #2886D0",
"0.	c #226EB0",
"a.	c #1F5E9D",
"b.	c #1D4C90",
"c.	c #154491",
"d.	c #2370B5",
"e.	c #5A9DC9",
"f.	c #9CC7D3",
"g.	c #C0D7DB",
"h.	c #B4C4C7",
"i.	c #657274",
"j.	c #180B02",
"k.	c #170A01",
"l.	c #738C9D",
"m.	c #D8E9F0",
"n.	c #7AB2D9",
"o.	c #3595D5",
"p.	c #2C89D2",
"q.	c #2073C4",
"r.	c #124799",
"s.	c #39376A",
"t.	c #6C4F4D",
"u.	c #072161",
"v.	c #0B3585",
"w.	c #195FBA",
"x.	c #256FC9",
"y.	c #2478CD",
"z.	c #2980D3",
"A.	c #2681D2",
"B.	c #2A8BD6",
"C.	c #379BD5",
"D.	c #7CB5C6",
"E.	c #96ACAE",
"F.	c #8B9597",
"G.	c #777D7D",
"H.	c #3F4140",
"I.	c #221105",
"J.	c #200E03",
"K.	c #BDC3C5",
"L.	c #9EC0E0",
"M.	c #4494CF",
"N.	c #6EB8E2",
"O.	c #55ABE0",
"P.	c #2F89D7",
"Q.	c #1658B6",
"R.	c #103D9B",
"S.	c #0F3790",
"T.	c #092C79",
"U.	c #0D3994",
"V.	c #164DAA",
"W.	c #1651AE",
"X.	c #1351AD",
"Y.	c #1F59B2",
"Z.	c #1959B3",
"`.	c #1961BF",
" +	c #1E73CB",
".+	c #529FD9",
"++	c #95BFD4",
"@+	c #798789",
"#+	c #2B160A",
"$+	c #281409",
"%+	c #241106",
"&+	c #3D3F3D",
"*+	c #D7E1EC",
"=+	c #75A6D6",
"-+	c #8BB7D8",
";+	c #3B66A2",
">+	c #11438F",
",+	c #134B9F",
"'+	c #124DAA",
")+	c #0F3F9D",
"!+	c #0A3993",
"~+	c #0B3892",
"{+	c #113F9A",
"]+	c #12429E",
"^+	c #103E9A",
"/+	c #1346A0",
"(+	c #1447A2",
"_+	c #1041A0",
":+	c #1543A1",
"<+	c #1348A8",
"[+	c #1553B3",
"}+	c #1E6EC2",
"|+	c #71AED8",
"1+	c #A9C4C9",
"2+	c #4D4D4C",
"3+	c #271408",
"4+	c #969A9A",
"5+	c #B5C7E1",
"6+	c #96B0D5",
"7+	c #183775",
"8+	c #4E7082",
"9+	c #5D91A3",
"0+	c #2E5988",
"a+	c #0B3385",
"b+	c #0D378D",
"c+	c #0B378C",
"d+	c #0F388B",
"e+	c #0A3284",
"f+	c #0F3585",
"g+	c #0C2F80",
"h+	c #0A327F",
"i+	c #082C78",
"j+	c #0C3080",
"k+	c #0D3187",
"l+	c #0D3189",
"m+	c #10358F",
"n+	c #0D3F9D",
"o+	c #1A5AB1",
"p+	c #64A4D8",
"q+	c #C1D8DC",
"r+	c #39312D",
"s+	c #241207",
"t+	c #251406",
"u+	c #321F00",
"v+	c #C2C7C8",
"w+	c #A7B8DC",
"x+	c #55689A",
"y+	c #384B54",
"z+	c #96C1CB",
"A+	c #8AC0CB",
"B+	c #64A5BB",
"C+	c #093183",
"D+	c #0B2E7F",
"E+	c #0B307E",
"F+	c #0E317F",
"G+	c #092B75",
"H+	c #09296C",
"I+	c #0C2866",
"J+	c #0A2763",
"K+	c #0B2767",
"L+	c #0C296C",
"M+	c #0C2971",
"N+	c #0B2C78",
"O+	c #092C7E",
"P+	c #0E378A",
"Q+	c #1350A7",
"R+	c #85B1DA",
"S+	c #AFBDBD",
"T+	c #251306",
"U+	c #1F1300",
"V+	c #B0BAC4",
"W+	c #7B94C7",
"X+	c #203E75",
"Y+	c #496967",
"Z+	c #91BDC3",
"`+	c #7EB8C3",
" @	c #62A7BB",
".@	c #093584",
"+@	c #0A2B78",
"@@	c #0A2A74",
"#@	c #0A286E",
"$@	c #092666",
"%@	c #09225D",
"&@	c #071F51",
"*@	c #081E4F",
"=@	c #071F4E",
"-@	c #09214F",
";@	c #07204F",
">@	c #072157",
",@	c #082460",
"'@	c #0A2566",
")@	c #0A2972",
"!@	c #0A3488",
"~@	c #1959AE",
"{@	c #B4D3E3",
"]@	c #585D5D",
"^@	c #251305",
"/@	c #311B00",
"(@	c #8595A6",
"_@	c #255296",
":@	c #526886",
"<@	c #53896F",
"[@	c #87B6BB",
"}@	c #6FADB5",
"|@	c #5399AA",
"1@	c #07317C",
"2@	c #09276D",
"3@	c #0A276A",
"4@	c #092569",
"5@	c #082260",
"6@	c #071E52",
"7@	c #071B44",
"8@	c #07183C",
"9@	c #07193A",
"0@	c #071A3C",
"a@	c #061A3A",
"b@	c #071B3F",
"c@	c #061D46",
"d@	c #071F4F",
"e@	c #09225B",
"f@	c #08286D",
"g@	c #0D3688",
"h@	c #5E90C2",
"i@	c #A1B1B2",
"j@	c #221402",
"k@	c #362201",
"l@	c #1F0F05",
"m@	c #231206",
"n@	c #353335",
"o@	c #3D5589",
"p@	c #798797",
"q@	c #7FB39B",
"r@	c #88AEAF",
"s@	c #6CA29E",
"t@	c #428194",
"u@	c #0A2A6C",
"v@	c #0A2567",
"w@	c #092465",
"x@	c #0A266C",
"y@	c #0A2B76",
"z@	c #0B2C7B",
"A@	c #082970",
"B@	c #071D52",
"C@	c #09142E",
"D@	c #07152B",
"E@	c #071938",
"F@	c #071C45",
"G@	c #061F45",
"H@	c #072048",
"I@	c #07214F",
"J@	c #07235A",
"K@	c #082D73",
"L@	c #2154A2",
"M@	c #B4CBD4",
"N@	c #1B0C03",
"O@	c #201201",
"P@	c #3B2901",
"Q@	c #251308",
"R@	c #312720",
"S@	c #2B2C29",
"T@	c #A5A093",
"U@	c #C9BDA9",
"V@	c #A8AFA9",
"W@	c #94A69C",
"X@	c #7B988B",
"Y@	c #395977",
"Z@	c #0A2661",
"`@	c #0A2462",
" #	c #0A286A",
".#	c #0B2A75",
"+#	c #0B2E81",
"@#	c #0C2F83",
"##	c #092F80",
"$#	c #08276E",
"%#	c #1E3761",
"&#	c #2E5078",
"*#	c #244C7F",
"=#	c #2B598D",
"-#	c #0B3470",
";#	c #082864",
">#	c #062A69",
",#	c #0C3B88",
"'#	c #AAC9DD",
")#	c #45494A",
"!#	c #1D0D04",
"~#	c #211006",
"{#	c #211005",
"]#	c #35291C",
"^#	c #8E6F4C",
"/#	c #AD8458",
"(#	c #AE885F",
"_#	c #A67B51",
":#	c #996538",
"<#	c #7D532E",
"[#	c #362F41",
"}#	c #08245D",
"|#	c #0B296A",
"1#	c #0A2B72",
"2#	c #0B2D7A",
"3#	c #0A3084",
"4#	c #072A74",
"5#	c #445F78",
"6#	c #4B4B4B",
"7#	c #445054",
"8#	c #5F7A90",
"9#	c #466797",
"0#	c #164592",
"a#	c #154999",
"b#	c #8FAECC",
"c#	c #636B6C",
"d#	c #281707",
"e#	c #372500",
"f#	c #5C4D37",
"g#	c #AD793E",
"h#	c #B16A28",
"i#	c #BC712A",
"j#	c #AD6126",
"k#	c #9B4D1B",
"l#	c #5B3028",
"m#	c #082457",
"n#	c #082762",
"o#	c #092869",
"p#	c #09296F",
"q#	c #092970",
"r#	c #072874",
"s#	c #082A78",
"t#	c #0A2A75",
"u#	c #092A79",
"v#	c #1C4389",
"w#	c #4F6D86",
"x#	c #555B59",
"y#	c #697476",
"z#	c #8BA4B5",
"A#	c #5C94C2",
"B#	c #93B5C9",
"C#	c #687171",
"D#	c #291707",
"E#	c #331D00",
"F#	c #624D30",
"G#	c #C49051",
"H#	c #E5A557",
"I#	c #CC7C37",
"J#	c #964318",
"K#	c #482732",
"L#	c #092250",
"M#	c #082558",
"N#	c #07255B",
"O#	c #08235D",
"P#	c #082666",
"Q#	c #072567",
"R#	c #092669",
"S#	c #09256C",
"T#	c #08266E",
"U#	c #082B78",
"V#	c #0A3282",
"W#	c #3372B2",
"X#	c #9CAEB3",
"Y#	c #24221F",
"Z#	c #292523",
"`#	c #A6BBBE",
" $	c #CCDFE1",
".$	c #778283",
"+$	c #241504",
"@$	c #412C04",
"#$	c #221107",
"$$	c #211004",
"%$	c #2B1609",
"&$	c #342317",
"*$	c #826846",
"=$	c #AD8261",
"-$	c #432B44",
";$	c #201E33",
">$	c #091B3C",
",$	c #092048",
"'$	c #072252",
")$	c #082255",
"!$	c #072257",
"~$	c #08225C",
"{$	c #09225E",
"]$	c #092363",
"^$	c #072366",
"/$	c #09276C",
"($	c #092D79",
"_$	c #134799",
":$	c #8DB0CE",
"<$	c #8A9292",
"[$	c #25221F",
"}$	c #5A6568",
"|$	c #1D1713",
"1$	c #3D2B02",
"2$	c #180B01",
"3$	c #190C02",
"4$	c #1D0D03",
"5$	c #B6B59A",
"6$	c #747A8A",
"7$	c #866A67",
"8$	c #755739",
"9$	c #0D1933",
"0$	c #09162C",
"a$	c #091B39",
"b$	c #09224D",
"c$	c #072455",
"d$	c #072355",
"e$	c #072454",
"f$	c #072155",
"g$	c #07225D",
"h$	c #082667",
"i$	c #0B3481",
"j$	c #3576B6",
"k$	c #B4C5C7",
"l$	c #3E2B03",
"m$	c #2C2825",
"n$	c #E7E7CB",
"o$	c #2E5199",
"p$	c #847079",
"q$	c #A68560",
"r$	c #312B33",
"s$	c #0A1B39",
"t$	c #0A1A31",
"u$	c #091A34",
"v$	c #0D2F5C",
"w$	c #17385F",
"x$	c #0C3263",
"y$	c #07285C",
"z$	c #072457",
"A$	c #08235A",
"B$	c #09245E",
"C$	c #082B70",
"D$	c #124B9B",
"E$	c #A5C1CE",
"F$	c #252320",
"G$	c #211302",
"H$	c #392801",
"I$	c #6B6F6C",
"J$	c #D7D4BB",
"K$	c #234B9B",
"L$	c #384478",
"M$	c #C4A37D",
"N$	c #624E3C",
"O$	c #091F42",
"P$	c #0D2144",
"Q$	c #48506C",
"R$	c #0C2D5E",
"S$	c #595B67",
"T$	c #1B202C",
"U$	c #1F3A60",
"V$	c #153B6E",
"W$	c #0B2A5E",
"X$	c #09275C",
"Y$	c #092766",
"Z$	c #0C3785",
"`$	c #95B5CC",
" %	c #424645",
".%	c #201202",
"+%	c #372700",
"@%	c #676965",
"#%	c #C6C6B8",
"$%	c #6474A7",
"%%	c #525B88",
"&%	c #BD9F7C",
"*%	c #6B5842",
"=%	c #092756",
"-%	c #255082",
";%	c #504848",
">%	c #3E5177",
",%	c #94717A",
"'%	c #4D3931",
")%	c #2D2A37",
"!%	c #2A4770",
"~%	c #0E3974",
"{%	c #0A2D69",
"]%	c #093378",
"^%	c #7899B9",
"/%	c #646C6C",
"(%	c #251400",
"_%	c #494946",
":%	c #E4E7DA",
"<%	c #BEB5AA",
"[%	c #BD9475",
"}%	c #805229",
"|%	c #4F444B",
"1%	c #2D557D",
"2%	c #3D5A72",
"3%	c #1B1310",
"4%	c #B27F5B",
"5%	c #895C4D",
"6%	c #2E1D14",
"7%	c #648393",
"8%	c #28568F",
"9%	c #0C3E86",
"0%	c #668EB5",
"a%	c #5B605F",
"b%	c #251208",
"c%	c #221106",
"d%	c #171000",
"e%	c #A1A7A1",
"f%	c #A9C0BA",
"g%	c #639598",
"h%	c #695F59",
"i%	c #555D63",
"j%	c #0C2457",
"k%	c #1F3962",
"l%	c #1F1A15",
"m%	c #929286",
"n%	c #E6C098",
"o%	c #BD846A",
"p%	c #CDCBBF",
"q%	c #332620",
"r%	c #373F4C",
"s%	c #46749C",
"t%	c #7BA5C3",
"u%	c #403C38",
"v%	c #291B06",
"w%	c #422E08",
"x%	c #A3A5A2",
"y%	c #DCE0D4",
"z%	c #5F9294",
"A%	c #3B6D60",
"B%	c #39726D",
"C%	c #5E91A4",
"D%	c #395B84",
"E%	c #184076",
"F%	c #1B3B6A",
"G%	c #1A1D28",
"H%	c #AFAB9D",
"I%	c #C5AEA6",
"J%	c #9E8987",
"K%	c #93B0B1",
"L%	c #657473",
"M%	c #403B37",
"N%	c #ADC6CA",
"O%	c #3C3430",
"P%	c #403307",
"Q%	c #878883",
"R%	c #F1ECDA",
"S%	c #97BCC0",
"T%	c #468076",
"U%	c #36674F",
"V%	c #457377",
"W%	c #223856",
"X%	c #0C2C68",
"Y%	c #243E67",
"Z%	c #1A253B",
"`%	c #1E2433",
" &	c #ACA594",
".&	c #B9AA98",
"+&	c #808979",
"@&	c #538E90",
"#&	c #4B6263",
"$&	c #372C28",
"%&	c #241107",
"&&	c #2B1A08",
"*&	c #48360B",
"=&	c #ABAC9D",
"-&	c #B2C5C2",
";&	c #4D8E8A",
">&	c #42796D",
",&	c #2F4D5D",
"'&	c #0C2D67",
")&	c #1D2E50",
"!&	c #203E6F",
"~&	c #1A3C7D",
"{&	c #1E242D",
"]&	c #C9BCAC",
"^&	c #CCB49F",
"/&	c #969280",
"(&	c #558E88",
"_&	c #5D777A",
":&	c #271905",
"<&	c #48370B",
"[&	c #1B0C02",
"}&	c #78887C",
"|&	c #6E9F9D",
"1&	c #3D725F",
"2&	c #547E78",
"3&	c #4B6C7F",
"4&	c #0C2E6B",
"5&	c #1D3058",
"6&	c #2C3B59",
"7&	c #0F3174",
"8&	c #26426F",
"9&	c #7A756B",
"0&	c #D8BFAC",
"a&	c #CCB19A",
"b&	c #BAA58E",
"c&	c #5C847B",
"d&	c #4F888E",
"e&	c #1B0D03",
"f&	c #1A0C01",
"g&	c #291600",
"h&	c #465442",
"i&	c #5D8460",
"j&	c #407B6F",
"k&	c #457F82",
"l&	c #445B69",
"m&	c #0C3172",
"n&	c #253B69",
"o&	c #2D1E1A",
"p&	c #26437A",
"q&	c #183B7F",
"r&	c #6A6A69",
"s&	c #B9A78D",
"t&	c #CDB097",
"u&	c #CAAD91",
"v&	c #969681",
"w&	c #4D8781",
"x&	c #443008",
"y&	c #261407",
"z&	c #353020",
"A&	c #43523F",
"B&	c #3A4230",
"C&	c #535D6E",
"D&	c #123A83",
"E&	c #1E3A75",
"F&	c #384566",
"G&	c #113A81",
"H&	c #2B4C84",
"I&	c #7B7268",
"J&	c #CFB89B",
"K&	c #B4A48E",
"L&	c #999689",
"M&	c #567B6B",
"N&	c #211602",
"O&	c #3A2901",
"P&	c #5A636F",
"Q&	c #184393",
"R&	c #214687",
"S&	c #302220",
"T&	c #335190",
"U&	c #13418E",
"V&	c #3C4860",
"W&	c #837465",
"X&	c #9A8D78",
"Y&	c #7E8979",
"Z&	c #404F42",
"`&	c #231402",
" *	c #452E06",
".*	c #261307",
"+*	c #46403C",
"@*	c #959EA5",
"#*	c #1E4FA2",
"$*	c #2F599D",
"%*	c #403834",
"&*	c #96A0B1",
"**	c #1A4597",
"=*	c #5871A4",
"-*	c #CFD4CE",
";*	c #828D8C",
">*	c #221302",
",*	c #331E00",
"'*	c #DDDFD3",
")*	c #D3DBD5",
"!*	c #7D9EC2",
"~*	c #618DB6",
"{*	c #B3CDD2",
"]*	c #C3CDC2",
"^*	c #DDD5C4",
"/*	c #8291A0",
"(*	c #678F9A",
"_*	c #559191",
":*	c #6C8786",
"<*	c #1E1500",
"[*	c #C3C6B0",
"}*	c #628975",
"|*	c #457B72",
"1*	c #377269",
"2*	c #428178",
"3*	c #D1DDA2",
"4*	c #D2BF96",
"5*	c #868465",
"6*	c #4D7569",
"7*	c #3E828C",
"8*	c #70A5AD",
"9*	c #1E1408",
"0*	c #6B6950",
"a*	c #CBD1BF",
"b*	c #689698",
"c*	c #478080",
"d*	c #377678",
"e*	c #418892",
"f*	c #ABC3B0",
"g*	c #E3D1A7",
"h*	c #91845F",
"i*	c #4A604B",
"j*	c #3E5149",
"k*	c #7D8D8B",
"l*	c #716D58",
"m*	c #A7A58C",
"n*	c #E5E5E0",
"o*	c #F8F3E2",
"p*	c #9F8361",
"q*	c #4B6950",
"r*	c #36634F",
"s*	c #2E5846",
"t*	c #475D49",
"u*	c #EAE2BB",
"v*	c #E8925C",
"w*	c #B74123",
"x*	c #6C303B",
"y*	c #592830",
"z*	c #9CA7AE",
"A*	c #2C2116",
"B*	c #1F0E05",
"C*	c #B3986A",
"D*	c #F4BE98",
"E*	c #E9BA93",
"F*	c #D2D4CC",
"G*	c #A9C0BF",
"H*	c #843F45",
"I*	c #68303E",
"J*	c #542837",
"K*	c #4D1D23",
"L*	c #4D252A",
"M*	c #BEA66F",
"N*	c #DD431B",
"O*	c #C72A13",
"P*	c #701E1F",
"Q*	c #591B1B",
"R*	c #623939",
"S*	c #584F3C",
"T*	c #443C27",
"U*	c #D77549",
"V*	c #B7372E",
"W*	c #9E8480",
"X*	c #68A4A9",
"Y*	c #5B9A9C",
"Z*	c #5A3037",
"`*	c #5F1F2A",
" =	c #551A20",
".=	c #4F1415",
"+=	c #4C1815",
"@=	c #70511C",
"#=	c #843709",
"$=	c #A9380C",
"%=	c #741F0C",
"&=	c #4C170E",
"*=	c #441914",
"==	c #616559",
"-=	c #52372B",
";=	c #5D1C11",
">=	c #5D584E",
",=	c #407C74",
"'=	c #397569",
")=	c #433530",
"!=	c #4F1310",
"~=	c #49120F",
"{=	c #42130F",
"]=	c #3C150E",
"^=	c #351A07",
"/=	c #24251A",
"(=	c #232D22",
"_=	c #221C12",
":=	c #1C0C01",
"  . + + + + + + @ #       $ % + + + + + + + + + + + + + + + + + + + + + + + + + + + % & * ",
"= - ; ; ; ; ; ; > , , , = ' + ; ; ; ; ) ! ~ { ] ^ / ( _ : < ; ; ; ; ; ; ; ; ; ; ; ; + & * ",
"[ ; ; ; ; ; ; ; ; ; ; ; > } + ; ; | 1 2 3 4 5 6 7 8 9 0 a b c d e ; ; ; ; ; ; ; ; ; + & * ",
"[ ; ; ; ; ; ; ; ; ; ; ; > } + ; f g h i j k l m n o p q r s t u v w ; ; ; ; ; ; ; - x & * ",
", y y y y y z ; ; ; ; ; > } + A B C D E F G H I J K L M N O P Q R S T y y y y y [ =   & * ",
"U U U U U V W > > > > X Y Z `  ...+.@.#.$.%.&.*.=.-.;.>.,.'.).!.~.{.].^.U U U U U U   & * ",
"$ $ $ $ $ ' /.(.(.(.(._.:.<.[.}.|.1.2.3.4.5.6.7.8.9.0.a.b.c.d.e.f.g.h.i.$ $ $ $ $ $ j.& * ",
"k.k.k.k.k.k.k.k.k.k.k.k.l.m.n.o.p.q.r.s.t.u.v.w.x.y.z.A.B.C.D.E.F.G.H.+ + + + I.      J.* ",
"k.k.k.k.k.k.k.k.k.k.k.k.K.L.M.N.O.P.Q.R.S.T.U.V.W.X.Y.Z.`. +.+++@+; ; ; ; ; #+$+V V V %+* ",
"k.k.k.k.k.k.k.k.k.k.k.&+*+=+-+;+>+,+'+)+!+~+{+]+^+/+(+_+:+<+[+}+|+1+2+; ; ; 3+V V V V %+* ",
"k.k.k.k.k.k.k.k.k.k.k.4+5+6+7+8+9+0+a+b+c+d+e+f+g+h+i+j+k+l+m+n+o+p+q+r+#+3+s+V V V V t+u+",
"k.k.k.k.k.k.k.k.k.k.k.v+w+x+y+z+A+B+C+D+E+F+G+H+I+J+K+K+L+M+N+O+P+Q+R+S+$+s+V V V V V T+U+",
"k.k.k.k.k.k.k.k.k.k.k.V+W+X+Y+Z+`+ @.@+@@@#@$@%@&@*@=@-@;@>@,@'@)@!@~@{@]@U U U U U U ^@/@",
"k.k.k.k.k.k.k.k.k.k.k.(@_@:@<@[@}@|@1@2@3@4@5@6@7@8@9@0@a@b@c@d@e@f@g@h@i@' ' ' ' ' ' j@k@",
"      $ '       l@m@+ n@o@p@q@r@s@t@u@v@w@x@y@z@A@B@C@D@E@F@G@H@I@J@K@L@M@k.N@      N@O@P@",
"V V V N@  Q@Q@Q@3+; R@S@T@U@V@W@X@Y@Z@`@ #.#D++#@###$#&@%#&#*#=#-#;#>#,#'#)#!#~#V V . j@k@",
"V V V N@{#; ; ; ; ; ; ]#^#/#(#_#:#<#[#}#|#1#N+2#3#+#T.4#|#5#6#7#8#9#0#a#b#c#k.} V V V d#e#",
"V V V N@{#; ; ; ; ; ; ; f#g#h#i#j#k#l#m#n#o#p#q#r#s#t#u#T.v#w#x#k.y#z#A#B#C#k.j.} ~#V D#E#",
"V V V N@{#; ; ; ; ; ; ; ; F#G#H#I#J#K#L#M#N#O#P#Q#R#S#T#U#V#W#X#Y#k.Z#`# $.$k.$ } ~#~#+$@$",
"#$#$#$N@$$%$%$%$%$%$%$%$%$%$&$*$=$-$;$>$,$'$)$!$~${$]$^$/$($_$:$<$k.k.[$}$|$k.N@#$#$  O@1$",
"' ' ' 2$3$4$4$4$4$4$4$4$4$4$4$5$6$7$8$9$0$a$b$c$d$e$f$g$,@h$i$j$k$k.k.k.k.k.k.2$' ' $ O@l$",
"k.k.k.k.k.k.k.k.k.k.k.k.k.k.m$n$o$p$q$r$s$t$u$v$w$x$y$z$A$B$C$D$E$F$k.k.k.k.k.k.k.k.k.G$H$",
"k.k.k.k.k.k.k.k.k.k.k.k.k.k.I$J$K$L$M$N$O$P$Q$R$S$T$U$V$W$X$Y$Z$`$ %4$4$4$4$4$4$4$4$} .%+%",
"k.k.k.k.k.k.k.k.k.k.k.k.k.k.@%#%$%%%&%*%=%-%;%>%,%'%%$)%!%~%{%]%^%/%%$%$%$%$%$%$%$%$3+T+(%",
"k.k.k.k.k.k.k.k.k.k.k.k.k.k._%:%<%[%}%|%1%2%k.3%4%5%; ; 6%7%8%9%0%a%; ; ; ; ; ; ; $+b%c%d%",
"k.k.k.k.k.k.k.k.k.k.k.k.k.k.e%f%g%h%i%j%k%l%k.m%n%o%p%q%; ; r%s%t%u%; ; ; ; ; ; ; , V v%w%",
"k.k.k.k.k.k.k.k.k.k.k.k.k.x%y%z%A%B%C%D%E%F%G%H%I%J%K%L%; ; ; M%N%O%; ; ; ; ; ; z , V D#P%",
"k.k.k.k.k.k.k.k.k.k.k.k.Q%R%S%T%U%V%W%X%Y%Z%`% &.&+&@&#&; ; ; ; $&; ; ; ; ; $+Q@Q@%&V &&*&",
"k.k.k.k.k.k.k.k.k.k.k.k.=&-&;&>&,&'&)&!&~&{&$ ]&^&/&(&_&+ + + + + + + + + + x         :&<&",
"' ' ' ' ' ' ' ' $ k.[&} }&|&1&2&3&4&5&6&7&8&9&0&a&b&c&d&} } } } e&' ' ' ' ' ' ' ' ' $ f&g&",
"U U U U U U U U . k.T+> h&i&j&k&l&m&n&o&p&q&r&s&t&u&v&w&> > > > - U U U U U U U U U   j@x&",
"V V V V V V V V . k.y&; ; z&A&B&C&D&E&; F&G&H&I&J&K&L&M&; ; ; ; #+y y y y y y y y y I.N&O&",
"V V V V V V V V . k.y&; ; ; ; ; P&Q&R&; S&T&U&V&W&X&Y&Z&; ; ; ; ; ; ; ; ; ; ; ; ; ; + `& *",
"V V V V V V V V . k..*; ; ; ; +*@*#*$*; %*&***=*-*;*; ; ; ; ; ; ; ; ; ; ; ; ; ; ; ; + >*,*",
"V V V V V V V V . k.U , , , , '*)*!*~*{*]*^*/*(*_*:*; ; ; ; ; ; ; ; ; ; ; ; ; ; ; ; + f&<*",
"                } k.}         [*}*|*1*2*3*4*5*6*7*8*+ + + + + + + + + + + + + + + + % & * ",
"j.$ $ $ $ $ $ $ $ $ $ $ $ 9*0*a*b*c*d*e*f*g*h*i*j*k*$ $ $ $ $ $ $ k.k.k.k.k.k.k.k.k.k.& * ",
"  U U U U U U U U U U l*m*n*o*p*q*r*s*t*u*v*w*x*y*z*A*U U U U U B*k.k.k.k.k.k.k.k.k.k.& * ",
"  V V V V V V V V V C*D*E*F*G*H*I*J*K*L*M*N*O*P*Q*R*S*4$4$4$4$4$N@k.k.k.k.k.k.k.k.k.k.& * ",
"  V V V V V V V V T*U*V*W*X*Y*Z*`* =.=+=@=#=$=%=&=*===k.k.k.k.k.k.k.k.k.k.k.k.k.k.k.k.& * ",
"  V V V V V V V V V -=;=>=,='=)=!=~={=]=^=k.k.k.k.k.k.k.k.k.k.k.k.k.k.k.k.k.k.k.k.k.k.& * ",
"  V V V V V V V V V V V V /=(=_=x ~#~#l@$ k.k.k.k.k.k.k.k.k.k.k.k.k.k.k.$ l@N@k.k.k.k.& * ",
"e&                            !#k.}     $ k.k.k.k.k.k.k.k.k.k.k.k.k.k.k.j.  ' k.k.k.k.& * ",
"& & & & & & & & & & & & & & & & & & & & & & & & & & & & & & & & & & & & & & & & & & & :=* ",
"* * * * * * * * * * * * * * * * * * * * * * * * * * * * * * * * * * * * * * * * * * * * * "};
