/* XPM */
static char * E_xpm[] = {
"45 45 841 2",
"  	c #1E0E04",
". 	c #200F05",
"+ 	c #241206",
"@ 	c #231106",
"# 	c #1F0E04",
"$ 	c #190B02",
"% 	c #1F0F04",
"& 	c #1A0B01",
"* 	c #281000",
"= 	c #251207",
"- 	c #281408",
"; 	c #2C170A",
"> 	c #2A1609",
", 	c #261308",
"' 	c #1A0C02",
") 	c #281509",
"! 	c #2E1C14",
"~ 	c #4B565D",
"{ 	c #66777C",
"] 	c #6A767C",
"^ 	c #4A4E52",
"/ 	c #3D637F",
"( 	c #3E7DB1",
"_ 	c #3E87C8",
": 	c #3081CC",
"< 	c #2F82CD",
"[ 	c #3B8ACF",
"} 	c #61A0DC",
"| 	c #76ADDB",
"1 	c #7EA7C2",
"2 	c #7E888E",
"3 	c #3A322F",
"4 	c #201005",
"5 	c #291509",
"6 	c #323B45",
"7 	c #3B7CAD",
"8 	c #1C6CB7",
"9 	c #125BAD",
"0 	c #1058AC",
"a 	c #1358AE",
"b 	c #1258AF",
"c 	c #165EB6",
"d 	c #1463BD",
"e 	c #166EC0",
"f 	c #388CCD",
"g 	c #96BAD7",
"h 	c #B4D2E6",
"i 	c #9EAAB2",
"j 	c #302019",
"k 	c #221006",
"l 	c #2D4155",
"m 	c #286BA9",
"n 	c #1856A3",
"o 	c #114D9A",
"p 	c #114A9A",
"q 	c #104A9C",
"r 	c #0E4B9E",
"s 	c #104EA3",
"t 	c #0F53AA",
"u 	c #0E5AB4",
"v 	c #1971C0",
"w 	c #415E95",
"x 	c #755157",
"y 	c #76A9D0",
"z 	c #87BBE1",
"A 	c #B7CAD6",
"B 	c #4A4645",
"C 	c #241207",
"D 	c #344D5F",
"E 	c #41688F",
"F 	c #3B6394",
"G 	c #14468A",
"H 	c #104591",
"I 	c #0F509D",
"J 	c #105FAF",
"K 	c #1167B9",
"L 	c #106BC3",
"M 	c #1274C8",
"N 	c #1766AC",
"O 	c #806575",
"P 	c #975A48",
"Q 	c #6A80A0",
"R 	c #5EA4D9",
"S 	c #78B5E0",
"T 	c #C3D8E3",
"U 	c #5C5F5F",
"V 	c #1C0D02",
"W 	c #180B02",
"X 	c #170A01",
"Y 	c #364F60",
"Z 	c #4180B5",
"` 	c #1F7BC7",
" .	c #1676CA",
"..	c #1170C7",
"+.	c #106AC2",
"@.	c #0E66C1",
"#.	c #136ABC",
"$.	c #133F81",
"%.	c #A97D73",
"&.	c #A86F5C",
"*.	c #645680",
"=.	c #3A89CC",
"-.	c #3B96D7",
";.	c #74B3E1",
">.	c #B6D4E8",
",.	c #7AA5C1",
"'.	c #6399C2",
").	c #5D95C4",
"!.	c #75A4C8",
"~.	c #8B989F",
"{.	c #211005",
"].	c #221105",
"^.	c #200E03",
"/.	c #2E5367",
"(.	c #2B76B0",
"_.	c #1B72C0",
":.	c #1361B9",
"<.	c #125EB6",
"[.	c #115CB7",
"}.	c #0E59B6",
"|.	c #0E58B4",
"1.	c #0F59B4",
"2.	c #0F4D9D",
"3.	c #123A7B",
"4.	c #8F7889",
"5.	c #3A559C",
"6.	c #1355AA",
"7.	c #1664B8",
"8.	c #267DCA",
"9.	c #4394D3",
"0.	c #90BEE2",
"a.	c #A7CEEA",
"b.	c #317DC5",
"c.	c #608AC0",
"d.	c #AFAFB0",
"e.	c #566269",
"f.	c #2B160A",
"g.	c #281409",
"h.	c #231107",
"i.	c #241106",
"j.	c #2C6389",
"k.	c #2873BA",
"l.	c #1457AB",
"m.	c #0F4EA2",
"n.	c #104BA0",
"o.	c #0F489F",
"p.	c #0E4AA1",
"q.	c #0E49A2",
"r.	c #0E4DA4",
"s.	c #0F4DA4",
"t.	c #104697",
"u.	c #0F418F",
"v.	c #145BB3",
"w.	c #2070C3",
"x.	c #3887CE",
"y.	c #257AC9",
"z.	c #2D82CA",
"A.	c #68A3D5",
"B.	c #BDD3E9",
"C.	c #B5CBE4",
"D.	c #D8BEAA",
"E.	c #807E84",
"F.	c #271408",
"G.	c #2E6A8F",
"H.	c #1B67B3",
"I.	c #124E9F",
"J.	c #104595",
"K.	c #104392",
"L.	c #0E4190",
"M.	c #0F4292",
"N.	c #0D4399",
"O.	c #0E459B",
"P.	c #0C469C",
"Q.	c #0E479E",
"R.	c #0E469B",
"S.	c #114A9D",
"T.	c #124FA7",
"U.	c #1350A4",
"V.	c #114998",
"W.	c #245EA4",
"X.	c #5899D1",
"Y.	c #58A0D7",
"Z.	c #5C9DD3",
"`.	c #9EBEDB",
" +	c #E9EFF4",
".+	c #D2C5BE",
"++	c #3D3F44",
"@+	c #251406",
"#+	c #321F00",
"$+	c #295B79",
"%+	c #1A69B0",
"&+	c #0F3F8C",
"*+	c #0E3B84",
"=+	c #0F3B83",
"-+	c #0E3B83",
";+	c #0B3B86",
">+	c #10418F",
",+	c #0C4193",
"'+	c #0F4296",
")+	c #114597",
"!+	c #0D4597",
"~+	c #10479A",
"{+	c #114493",
"]+	c #164182",
"^+	c #57798F",
"/+	c #59798B",
"(+	c #274C7D",
"_+	c #6192C2",
":+	c #76ABD9",
"<+	c #89B4D8",
"[+	c #C9D8E8",
"}+	c #B6C6D1",
"|+	c #494441",
"1+	c #2A1509",
"2+	c #251306",
"3+	c #1F1300",
"4+	c #23333C",
"5+	c #2671AE",
"6+	c #114891",
"7+	c #0F3A81",
"8+	c #0D3579",
"9+	c #0D3374",
"0+	c #0C3373",
"a+	c #0F3778",
"b+	c #0E367C",
"c+	c #0C3A83",
"d+	c #0D3C89",
"e+	c #0E3E8C",
"f+	c #10418E",
"g+	c #0E4292",
"h+	c #10408F",
"i+	c #11418D",
"j+	c #5E88AB",
"k+	c #99C1D0",
"l+	c #A3C7D2",
"m+	c #8EB0BB",
"n+	c #325580",
"o+	c #7FA7D1",
"p+	c #80AFD6",
"q+	c #9ABEDD",
"r+	c #A0C3E1",
"s+	c #B4B6B7",
"t+	c #251305",
"u+	c #311B00",
"v+	c #306790",
"w+	c #134C94",
"x+	c #0F3979",
"y+	c #0F316B",
"z+	c #0E2F64",
"A+	c #0D2D60",
"B+	c #0C2E61",
"C+	c #0C2E62",
"D+	c #0D3169",
"E+	c #0D336D",
"F+	c #0E3578",
"G+	c #0D387F",
"H+	c #0F3C84",
"I+	c #103C86",
"J+	c #103D86",
"K+	c #134692",
"L+	c #7FAEC4",
"M+	c #9DC6D1",
"N+	c #ACCED8",
"O+	c #B2D0DA",
"P+	c #7F9DA7",
"Q+	c #376094",
"R+	c #96BDDC",
"S+	c #6BA6D1",
"T+	c #AEC9DF",
"U+	c #7C878E",
"V+	c #1C0D03",
"W+	c #221402",
"X+	c #362201",
"Y+	c #201917",
"Z+	c #286AA6",
"`+	c #0F3A75",
" @	c #0E3163",
".@	c #0E2D59",
"+@	c #102C56",
"@@	c #0F2C54",
"#@	c #0E2B50",
"$@	c #0D2A53",
"%@	c #0C2B55",
"&@	c #0C2D5E",
"*@	c #0D316C",
"=@	c #0C3576",
"-@	c #0F397D",
";@	c #0E377C",
">@	c #0F3A80",
",@	c #124894",
"'@	c #82B2C2",
")@	c #99C1CA",
"!@	c #A8CAD4",
"~@	c #B5D2D9",
"{@	c #87AEA8",
"]@	c #143C63",
"^@	c #6F9AC2",
"/@	c #6C9EC9",
"(@	c #BBCDDB",
"_@	c #34302F",
":@	c #1B0C03",
"<@	c #201201",
"[@	c #3B2901",
"}@	c #2C475E",
"|@	c #174E8A",
"1@	c #0F325F",
"2@	c #112D51",
"3@	c #132F4D",
"4@	c #16314E",
"5@	c #1B3552",
"6@	c #17314E",
"7@	c #152F4B",
"8@	c #0F2A49",
"9@	c #0E3779",
"0@	c #0E3579",
"a@	c #0E3478",
"b@	c #11387C",
"c@	c #124593",
"d@	c #73A2B2",
"e@	c #8FB8C1",
"f@	c #A0C2CB",
"g@	c #B0CCD1",
"h@	c #7FAA99",
"i@	c #516C6C",
"j@	c #517BA5",
"k@	c #85A3C1",
"l@	c #B6BCB8",
"m@	c #2B1609",
"n@	c #200F04",
"o@	c #1D0D04",
"p@	c #211006",
"q@	c #2C5070",
"r@	c #174070",
"s@	c #415773",
"t@	c #818F9D",
"u@	c #798792",
"v@	c #868F9A",
"w@	c #979CA1",
"x@	c #8A9095",
"y@	c #889194",
"z@	c #385584",
"A@	c #103E8A",
"B@	c #0F3B88",
"C@	c #0F3981",
"D@	c #0E3576",
"E@	c #0E3371",
"F@	c #0F3573",
"G@	c #124087",
"H@	c #5582A9",
"I@	c #82AAB1",
"J@	c #95B5BC",
"K@	c #A6C1C4",
"L@	c #84B998",
"M@	c #A8C7B1",
"N@	c #C7C9C2",
"O@	c #BCCEBA",
"P@	c #858E7A",
"Q@	c #4B4844",
"R@	c #241107",
"S@	c #1D0D03",
"T@	c #281707",
"U@	c #372500",
"V@	c #304C65",
"W@	c #6C889B",
"X@	c #7B898F",
"Y@	c #373939",
"Z@	c #234D86",
"`@	c #124390",
" #	c #0F3D89",
".#	c #103983",
"+#	c #10377E",
"@#	c #0E3575",
"##	c #0D316B",
"$#	c #103777",
"%#	c #506292",
"&#	c #8A9A9D",
"*#	c #8EA8A9",
"=#	c #9BB3B4",
"-#	c #A2BEB6",
";#	c #C5CBC2",
">#	c #E5DCC6",
",#	c #939687",
"'#	c #42422F",
")#	c #47443C",
"!#	c #291707",
"~#	c #331D00",
"{#	c #2A4A71",
"]#	c #124C98",
"^#	c #103E89",
"/#	c #103A80",
"(#	c #11377B",
"_#	c #0F3579",
":#	c #0F3571",
"<#	c #0E3168",
"[#	c #363B5D",
"}#	c #976951",
"|#	c #A87D63",
"1#	c #B5947C",
"2#	c #B9A08D",
"3#	c #BDA28D",
"4#	c #C5A083",
"5#	c #C99F71",
"6#	c #E0DED8",
"7#	c #32241C",
"8#	c #271308",
"9#	c #241504",
"0#	c #412C04",
"a#	c #221107",
"b#	c #211004",
"c#	c #2B1A12",
"d#	c #1E5D9F",
"e#	c #10448F",
"f#	c #0F3677",
"g#	c #0F3472",
"h#	c #0E326D",
"i#	c #0F336B",
"j#	c #0E3165",
"k#	c #0D2D5B",
"l#	c #30324D",
"m#	c #7D482D",
"n#	c #895739",
"o#	c #8D593B",
"p#	c #9E6440",
"q#	c #AA724A",
"r#	c #C08457",
"s#	c #F0CE8A",
"t#	c #D5D7CD",
"u#	c #3D2B02",
"v#	c #180B01",
"w#	c #190C02",
"x#	c #21405F",
"y#	c #16509B",
"z#	c #0F3B82",
"A#	c #0F336E",
"B#	c #0E3067",
"C#	c #0F3063",
"D#	c #0E2E5B",
"E#	c #0D2E5A",
"F#	c #0C2B51",
"G#	c #102849",
"H#	c #4B3233",
"I#	c #723F26",
"J#	c #7E452A",
"K#	c #8C4F31",
"L#	c #A9663D",
"M#	c #DEA360",
"N#	c #DFD8A7",
"O#	c #51504E",
"P#	c #3E2B03",
"Q#	c #1D4F80",
"R#	c #134487",
"S#	c #0F3473",
"T#	c #0F3167",
"U#	c #103061",
"V#	c #0D2C57",
"W#	c #0E2B51",
"X#	c #0E2A4B",
"Y#	c #0F2A44",
"Z#	c #112A41",
"`#	c #122438",
" $	c #3C2F37",
".$	c #4F3432",
"+$	c #513238",
"@$	c #7D535A",
"#$	c #BD9885",
"$$	c #A5987A",
"%$	c #231F18",
"&$	c #211302",
"*$	c #392801",
"=$	c #1C5187",
"-$	c #0F3874",
";$	c #103064",
">$	c #0F2D57",
",$	c #0D2B4F",
"'$	c #0F2B4A",
")$	c #152E46",
"!$	c #293A49",
"~$	c #6B4839",
"{$	c #5A4843",
"]$	c #654B46",
"^$	c #926455",
"/$	c #A5735F",
"($	c #A37F75",
"_$	c #5178AB",
":$	c #B8B4B8",
"<$	c #787661",
"[$	c #201202",
"}$	c #372700",
"|$	c #1B4D81",
"1$	c #10366B",
"2$	c #0F2E58",
"3$	c #112E51",
"4$	c #28405D",
"5$	c #5D6B7C",
"6$	c #373E47",
"7$	c #314048",
"8$	c #977D6D",
"9$	c #6B6B6D",
"0$	c #916959",
"a$	c #A47C68",
"b$	c #B38A74",
"c$	c #C59B82",
"d$	c #7893B6",
"e$	c #717FA1",
"f$	c #D4AE8D",
"g$	c #8D8877",
"h$	c #251400",
"i$	c #1E4C7D",
"j$	c #103262",
"k$	c #15335A",
"l$	c #586E87",
"m$	c #70808B",
"n$	c #1A110C",
"o$	c #2C444C",
"p$	c #395D6B",
"q$	c #545B63",
"r$	c #625960",
"s$	c #976E59",
"t$	c #A57A62",
"u$	c #B1856B",
"v$	c #C09275",
"w$	c #6982AA",
"x$	c #7E9BB8",
"y$	c #744D3F",
"z$	c #DEB695",
"A$	c #6D6A5E",
"B$	c #251208",
"C$	c #221106",
"D$	c #171000",
"E$	c #204C75",
"F$	c #193B66",
"G$	c #628097",
"H$	c #53616B",
"I$	c #2D4E5C",
"J$	c #417997",
"K$	c #436888",
"L$	c #404658",
"M$	c #8F644D",
"N$	c #9C6B4D",
"O$	c #A77355",
"P$	c #A47A6B",
"Q$	c #2C5996",
"R$	c #8699A9",
"S$	c #A38580",
"T$	c #A3B3B5",
"U$	c #CBCFC8",
"V$	c #A4A39D",
"W$	c #291B06",
"X$	c #422E08",
"Y$	c #2F5676",
"Z$	c #4A687F",
"`$	c #292E30",
" %	c #4F889C",
".%	c #53899B",
"+%	c #4B839B",
"@%	c #4C5460",
"#%	c #6C5651",
"$%	c #8D573B",
"%%	c #8C5A46",
"&%	c #4A4870",
"*%	c #748DB0",
"=%	c #5A6060",
"-%	c #708491",
";%	c #7FA6B4",
">%	c #BFCBC9",
",%	c #D7D8CA",
"'%	c #2B170A",
")%	c #403307",
"!%	c #1D1F22",
"~%	c #32505A",
"{%	c #5991A3",
"]%	c #4B747F",
"^%	c #578596",
"/%	c #B5AD98",
"(%	c #868380",
"_%	c #2C3A54",
":%	c #263F5C",
"<%	c #1B3C6E",
"[%	c #8498B9",
"}%	c #3C4045",
"|%	c #687882",
"1%	c #7199A8",
"2%	c #A5B8BB",
"3%	c #ECEADB",
"4%	c #2E1C13",
"5%	c #251308",
"6%	c #2B1A08",
"7%	c #48360B",
"8%	c #263C3E",
"9%	c #558993",
"0%	c #4C788B",
"a%	c #527278",
"b%	c #CEBA95",
"c%	c #6A7082",
"d%	c #5F738F",
"e%	c #191009",
"f%	c #1D3358",
"g%	c #4265A0",
"h%	c #6B7A83",
"i%	c #566B78",
"j%	c #7BADBF",
"k%	c #A3C2CD",
"l%	c #EEEFE7",
"m%	c #929394",
"n%	c #271905",
"o%	c #48370B",
"p%	c #1B0C02",
"q%	c #2A3C34",
"r%	c #536E6A",
"s%	c #807C64",
"t%	c #645D4D",
"u%	c #1B4585",
"v%	c #7C89A6",
"w%	c #1E1E2A",
"x%	c #1C4C8E",
"y%	c #44628C",
"z%	c #6691A3",
"A%	c #6996A2",
"B%	c #7FA8B2",
"C%	c #CBD8D8",
"D%	c #E7E8E8",
"E%	c #20150F",
"F%	c #1B0D03",
"G%	c #1A0C01",
"H%	c #291600",
"I%	c #293147",
"J%	c #1C4A8F",
"K%	c #8691A0",
"L%	c #22457B",
"M%	c #265194",
"N%	c #2D1F1D",
"O%	c #68919D",
"P%	c #67878F",
"Q%	c #72939E",
"R%	c #A6BBB5",
"S%	c #F7F5E5",
"T%	c #524E4B",
"U%	c #443008",
"V%	c #261407",
"W%	c #293D64",
"X%	c #2B5596",
"Y%	c #828892",
"Z%	c #293C65",
"`%	c #1D4B91",
" &	c #58657C",
".&	c #464542",
"+&	c #95A0A0",
"@&	c #9DA693",
"#&	c #B4B18D",
"$&	c #898771",
"%&	c #211602",
"&&	c #3A2901",
"*&	c #373435",
"=&	c #A8A8A7",
"-&	c #586E95",
";&	c #4C699E",
">&	c #94969D",
",&	c #31211A",
"'&	c #37394E",
")&	c #244D8B",
"!&	c #849BB8",
"~&	c #D8D6CF",
"{&	c #B6B5B2",
"]&	c #706854",
"^&	c #3D2F25",
"/&	c #231402",
"(&	c #452E06",
"_&	c #261307",
":&	c #48646E",
"<&	c #709DAB",
"[&	c #638FA9",
"}&	c #8598AA",
"|&	c #DBD3CA",
"1&	c #ABABA8",
"2&	c #332925",
"3&	c #809EAA",
"4&	c #6496A6",
"5&	c #799DA5",
"6&	c #DAD5BD",
"7&	c #D1D1C9",
"8&	c #221302",
"9&	c #331E00",
"0&	c #4F7B8A",
"a&	c #4B818D",
"b&	c #4E797E",
"c&	c #6B7C76",
"d&	c #DACCA8",
"e&	c #808179",
"f&	c #4C5E5B",
"g&	c #527C82",
"h&	c #6F99A2",
"i&	c #B9C2C0",
"j&	c #F7F7EA",
"k&	c #54504F",
"l&	c #1E1500",
"m&	c #1E1207",
"n&	c #576B6B",
"o&	c #638089",
"p&	c #606674",
"q&	c #497581",
"r&	c #568894",
"s&	c #889492",
"t&	c #E4DDB5",
"u&	c #9FA195",
"v&	c #4E6064",
"w&	c #517B83",
"x&	c #5B7881",
"y&	c #8D696C",
"z&	c #CDA79C",
"A&	c #C0BCB7",
"B&	c #A5A19C",
"C&	c #54514E",
"D&	c #1E140A",
"E&	c #6A5965",
"F&	c #788395",
"G&	c #69A3BC",
"H&	c #609DB4",
"I&	c #6A879B",
"J&	c #78283D",
"K&	c #782C3A",
"L&	c #933635",
"M&	c #E4C8AA",
"N&	c #8A8C77",
"O&	c #582B28",
"P&	c #8E3842",
"Q&	c #7C2B3C",
"R&	c #726479",
"S&	c #6FA2B9",
"T&	c #97B6C1",
"U&	c #CEB6B1",
"V&	c #E5B5A8",
"W&	c #C0AB99",
"X&	c #524E46",
"Y&	c #514149",
"Z&	c #8D5C73",
"`&	c #933153",
" *	c #892641",
".*	c #6B8094",
"+*	c #79ACBE",
"@*	c #81ACBB",
"#*	c #8F6372",
"$*	c #943142",
"%*	c #A72C35",
"&*	c #CF9876",
"**	c #ADAA86",
"=*	c #81261D",
"-*	c #8C2C33",
";*	c #783B4A",
">*	c #5790A9",
",*	c #589CB4",
"'*	c #6E8093",
")*	c #922B45",
"!*	c #AF3A4D",
"~*	c #D06867",
"{*	c #DDAB99",
"]*	c #9C927E",
"^*	c #1F0E05",
"/*	c #554350",
"(*	c #824967",
"_*	c #802742",
":*	c #812A45",
"<*	c #843047",
"[*	c #74475B",
"}*	c #7DA7B1",
"|*	c #7CA0A8",
"1*	c #8A7D81",
"2*	c #83222E",
"3*	c #881E27",
"4*	c #B2533A",
"5*	c #9A7642",
"6*	c #7A1F14",
"7*	c #781F22",
"8*	c #5F4E57",
"9*	c #468395",
"0*	c #508A9D",
"a*	c #6C3345",
"b*	c #7A2C43",
"c*	c #842E4B",
"d*	c #972F49",
"e*	c #BA4B52",
"f*	c #E0A385",
"g*	c #A59F87",
"h*	c #231208",
"i*	c #613945",
"j*	c #692435",
"k*	c #702335",
"l*	c #742436",
"m*	c #752233",
"n*	c #6D222F",
"o*	c #5F7E7F",
"p*	c #648782",
"q*	c #747B6F",
"r*	c #6C1D1D",
"s*	c #69201A",
"t*	c #75291A",
"u*	c #4A280C",
"v*	c #4F1E12",
"w*	c #52211A",
"x*	c #464A4E",
"y*	c #376D76",
"z*	c #42656D",
"A*	c #642326",
"B*	c #6B252B",
"C*	c #752C3A",
"D*	c #813343",
"E*	c #933948",
"F*	c #B6554D",
"G*	c #E8D0B3",
"H*	c #696654",
"I*	c #281C1B",
"J*	c #38272A",
"K*	c #46272D",
"L*	c #4E2727",
"M*	c #572A29",
"N*	c #4E2C25",
"O*	c #486946",
"P*	c #456C43",
"Q*	c #485C35",
"R*	c #362712",
"S*	c #281D0A",
"T*	c #1A0D02",
"U*	c #170C02",
"V*	c #212313",
"W*	c #25412F",
"X*	c #245746",
"Y*	c #335D41",
"Z*	c #4B5029",
"`*	c #645F3B",
" =	c #6E6041",
".=	c #705736",
"+=	c #6E603C",
"@=	c #817344",
"#=	c #928B4F",
"$=	c #63614B",
"%=	c #180A01",
"&=	c #1D0E04",
"*=	c #1F0F05",
"==	c #170B01",
"-=	c #170C01",
";=	c #180D01",
">=	c #1C0C01",
"  . + + + + + + @ #       $ % + + + + + + + + + + + + + + + + + + + + + + + + + + + % & * ",
"= - ; ; ; ; ; ; > , , , = ' + ; ; ; ; ; ; ; ; ; ; ; ; ; ; ; ; ; ; ; ; ; ; ; ; ; ; ; + & * ",
") ; ; ; ; ; ; ; ; ; ! ~ { ] ^ ; ; ; ; ; ; ; ; ; ; ; ; ; ; ; ; ; ; ; ; ; ; ; ; ; ; ; + & * ",
") ; ; ; ; ; ; ; / ( _ : < [ } | 1 2 3 ; ; ; ; ; ; ; ; ; ; ; ; ; ; ; ; ; ; ; ; ; ; - 4 & * ",
", 5 5 5 5 5 6 7 8 9 0 a b c d e f g h i j ; ; ; ; ; ; ; ; ; ; ; ; ; 5 5 5 5 5 5 ) =   & * ",
"k k k k k l m n o p q r s t u v w x y z A B > > > > > > > > > > > > C k k k k k k k   & * ",
"$ $ $ $ $ D E F G H I J K L M N O P Q R S T U V V V V V V V V V V V ' $ $ $ $ $ $ $ W & * ",
"X X X X X X X Y Z `  ...+.@.#.$.%.&.*.=.-.;.>.,.'.).!.~.{.+ + + + + + + + + + ].      ^.* ",
"X X X X X /.(._.:.<.[.}.|.1.2.3.4.5.6.7.8.9.0.a.b.c.d.e.5 ; ; ; ; ; ; ; ; ; f.g.h.h.h.i.* ",
"X X X X j.k.l.m.n.o.p.q.r.s.t.u.s v.w.x.y.z.A.B.C.D.E.; ; ; ; ; ; ; ; ; ; ; F.h.h.h.h.i.* ",
"X X X G.H.I.J.K.L.M.N.O.P.Q.R.S.T.U.V.W.X.Y.Z.`. +.+++; ; ; ; ; ; ; ; ; f.F.C h.h.h.h.@+#+",
"X X $+%+V.&+*+=+-+;+>+,+'+)+!+~+{+]+^+/+(+_+:+<+[+}+|+; ; ; ; ; ; ; 1+5 g.C h.h.h.h.h.2+3+",
"X 4+5+6+7+8+9+0+a+b+c+d+e+f+g+h+i+j+k+l+m+n+o+p+q+r+s+> > > > > > > C k k k k k k k k t+u+",
"X v+w+x+y+z+A+B+C+D+E+F+G+H+I+J+K+L+M+N+O+P+Q+R+S+T+U+V+V+V+V+V+V+V+' ' ' ' ' ' ' ' ' W+X+",
"Y+Z+`+ @.@+@@@#@$@%@&@*@=@-@;@>@,@'@)@!@~@{@]@^@/@(@_@+ + + + V+X X X X X X :@      :@<@[@",
"}@|@1@2@3@4@5@6@7@8@D+9@;@0@a@b@c@d@e@f@g@h@i@j@k@l@; m@> > > n@X X X X X X o@p@h.h.. W+X+",
"q@r@s@t@u@v@w@x@y@z@A@B@C@D@E@F@G@H@I@J@K@L@M@N@O@P@Q@, R@R@R@S@X X X X X X X V+h.h.h.T@U@",
"V@W@X@Y@{.; ; ; Z@`@ #.#+#@#*@##$#%#&#*#=#-#;#>#,#'#)#C h.h.h.V+X X X X X X X W V+p@h.!#~#",
"h.h.h.:@{.; ; {#]#^#/#(#_#:#<#z+[#}#|#1#2#3#4#5#6#7#8#8#8#, h.V+X X X X X X X $ V+p@p@9#0#",
"a#a#a#:@b#m@c#d#e#7+f#g#h#i#j#k#l#m#n#o#p#q#r#s#t#m@m@m@m@5 h.V+X X X X X X X :@a#a#  <@u#",
"' ' ' v#w#S@x#y#z#D@A#B#C#D#E#F#G#H#I#J#K#L#M#N#O#S@S@S@S@V+' v#X X X X X X X v#' ' $ <@P#",
"X X X X X X Q#R#S#T#U#V#W#X#Y#Z#`# $.$+$@$#$$$%$X X X X X X X X X X X X X X X X X X X &$*$",
"X X X X X X =$-$;$>$,$'$)$!$~${$]$^$/$($_$:$<$X X $ S@S@S@S@S@S@S@S@S@S@S@S@S@S@S@S@V+[$}$",
"X X X X X X |$1$2$3$4$5$6$7$8$9$0$a$b$c$d$e$f$g$X % m@m@m@m@m@m@m@m@m@m@m@m@m@m@m@m@F.2+h$",
"X X X X X X i$j$k$l$m$n$o$p$q$r$s$t$u$v$w$x$y$z$A$n@; ; ; ; ; ; ; ; ; ; ; ; ; ; ; g.B$C$D$",
"X X X X X X E$F$G$H$X X I$J$K$L$M$N$O$P$Q$R$X S$T$U$V$; ; ; ; ; ; ; ; ; ; ; ; ; ; , h.W$X$",
"X X X X X X Y$Z$`$X X X  %.%+%@%#%$%%%&%*%=%X -%;%>%,%; ; ; ; ; ; ; ; ; ; ; ; ; '%, h.!#)%",
"X X X X X X !%X X X X ~%{%]%^%/%(%_%:%<%[%}%$ |%1%2%3%4%; ; ; ; ; ; ; ; ; ; g.5%5%R@h.6%7%",
"X X X X X X X X X X X 8%9%0%a%b%c%d%e%f%g%h%$ i%j%k%l%m%+ + + + + + + + + + 4         n%o%",
"' ' ' ' ' ' ' ' $ X p%V+q%r%s%t%u%v%V+w%x%y%V+z%A%B%C%D%E%V+V+V+F%' ' ' ' ' ' ' ' ' $ G%H%",
"k k k k k k k k . X 2+> > > > I%J%K%> > L%M%N%O%P%Q%R%S%T%> > > - k k k k k k k k k   W+U%",
"h.h.h.h.h.h.h.h.. X V%; ; ; ; W%X%Y%; ; Z%`% &.&+&@&#&$&; ; ; ; f.5 5 5 5 5 5 5 5 5 ].%&&&",
"h.h.h.h.h.h.h.h.. X V%; ; *&=&-&;&>&,&; '&)&!&~&{&]&^&; ; ; ; ; ; ; ; ; ; ; ; ; ; ; + /&(&",
"h.h.h.h.h.h.h.h.. X _&; ; :&<&[&}&|&1&2&3&4&5&6&7&; ; ; ; ; ; ; ; ; ; ; ; ; ; ; ; ; + 8&9&",
"h.h.h.h.h.h.h.h.. X k , , 0&a&b&c&d&e&; f&g&h&i&j&k&; ; ; ; ; ; ; ; ; ; ; ; ; ; ; ; + G%l&",
"                V+X m&n&o&p&q&r&s&t&u&+ v&w&x&y&z&A&B&C&+ + + + + + + + + + + + + + % & * ",
"W $ $ $ $ $ $ $ D&E&F&G&H&I&J&K&L&M&N&X O&P&Q&R&S&T&U&V&W&X&$ $ $ X X X X X X X X X X & * ",
"  k k k k k k Y&Z&`& *.*+*@*#*$*%*&***X =*-*;*>*,*'*)*!*~*{*]*k ^*X X X X X X X X X X & * ",
"  h.h.h.h.h./*(*_*:*<*[*}*|*1*2*3*4*5*X 6*7*8*9*0*a*b*c*d*e*f*g*:@X X X X X X X X X X & * ",
"  h.h.h.h.h*i*j*k*l*m*n*o*p*q*r*s*t*u*X v*w*x*y*z*A*B*C*D*E*F*G*H*X X X X X X X X X X & * ",
"  h.h.h.h.h.I*J*K*L*M*N*O*P*Q*R*S*T*X X U*V*W*X*Y*Z*`* =.=+=@=#=$=X X X X X X X X X X & * ",
"  h.h.h.h.h.h.h.h.h.h.h.h.h.h.p@%=&=. *=$ X X U*==-=-=-=;=X X X X X X X $ *=:@X X X X & * ",
"F%                            o@X V+    $ X X X X X X X X X X X X X X X W   ' X X X X & * ",
"& & & & & & & & & & & & & & & & & & & & & & & & & & & & & & & & & & & & & & & & & & & >=* ",
"* * * * * * * * * * * * * * * * * * * * * * * * * * * * * * * * * * * * * * * * * * * * * "};
