/* XPM */
static char * player_front_xpm[] = {
"45 45 956 2",
"  	c #1E0E04",
". 	c #200F05",
"+ 	c #241206",
"@ 	c #231106",
"# 	c #1F0E04",
"$ 	c #190B02",
"% 	c #1F0F04",
"& 	c #1A0B01",
"* 	c #281000",
"= 	c #251207",
"- 	c #281408",
"; 	c #2C170A",
"> 	c #2A1609",
", 	c #261308",
"' 	c #1A0C02",
") 	c #3B312B",
"! 	c #616460",
"~ 	c #656865",
"{ 	c #3C342F",
"] 	c #363C4C",
"^ 	c #435F7A",
"/ 	c #281509",
"( 	c #1C0D03",
"_ 	c #48443E",
": 	c #8EA6A7",
"< 	c #ACD9DD",
"[ 	c #B5F2F6",
"} 	c #ACF3F6",
"| 	c #AFF4F6",
"1 	c #B8F3F5",
"2 	c #A0C8D6",
"3 	c #73659B",
"4 	c #705D8B",
"5 	c #808E90",
"6 	c #A6DBE9",
"7 	c #76D3F1",
"8 	c #60D0F2",
"9 	c #68DBF3",
"0 	c #7BE7F4",
"a 	c #96EEF6",
"b 	c #8AD0E7",
"c 	c #7D689F",
"d 	c #C44B53",
"e 	c #914470",
"f 	c #2D1B14",
"g 	c #201005",
"h 	c #291509",
"i 	c #2B170A",
"j 	c #3B4255",
"k 	c #487DB3",
"l 	c #508FB9",
"m 	c #5890AB",
"n 	c #557682",
"o 	c #353938",
"p 	c #38312E",
"q 	c #98AAB3",
"r 	c #87C8EA",
"s 	c #42ABE3",
"t 	c #3AB0E7",
"u 	c #3FBCEE",
"v 	c #4DC9EF",
"w 	c #5CCFEF",
"x 	c #59B2E3",
"y 	c #5F68AF",
"z 	c #C95E5C",
"A 	c #C24A50",
"B 	c #923968",
"C 	c #85A4AF",
"D 	c #646967",
"E 	c #221006",
"F 	c #231107",
"G 	c #291508",
"H 	c #2E201F",
"I 	c #874E7A",
"J 	c #A24876",
"K 	c #5D73B9",
"L 	c #34AEE8",
"M 	c #59C5F1",
"N 	c #6DC1EF",
"O 	c #4C97D9",
"P 	c #237BD0",
"Q 	c #2284D7",
"R 	c #2A9CE4",
"S 	c #30AAE9",
"T 	c #31A7E5",
"U 	c #1B6BCA",
"V 	c #1851B5",
"W 	c #B1647F",
"X 	c #D0635E",
"Y 	c #C04D54",
"Z 	c #8A366E",
"` 	c #95E0F0",
" .	c #B3F2F5",
"..	c #B0D7D8",
"+.	c #7B8785",
"@.	c #241207",
"#.	c #1B0D02",
"$.	c #1C0D02",
"%.	c #4C3D62",
"&.	c #AB394F",
"*.	c #B83B4C",
"=.	c #8B4C87",
"-.	c #288BD6",
";.	c #1E8DDE",
">.	c #1755BF",
",.	c #185AC2",
"'.	c #1C6BCB",
").	c #207FD7",
"!.	c #1975D1",
"~.	c #1559C6",
"{.	c #1453BF",
"].	c #1651BA",
"^.	c #A7719B",
"/.	c #D27474",
"(.	c #BE525C",
"_.	c #6E3E89",
":.	c #7EDDF3",
"<.	c #83E1F1",
"[.	c #99EAF4",
"}.	c #B5F1F5",
"|.	c #ACCCCD",
"1.	c #404341",
"2.	c #180B02",
"3.	c #170A01",
"4.	c #1D191E",
"5.	c #814069",
"6.	c #AB3546",
"7.	c #B63744",
"8.	c #8A3B7C",
"9.	c #1550B8",
"0.	c #1349B5",
"a.	c #1449B7",
"b.	c #144EB9",
"c.	c #1052BB",
"d.	c #1253BF",
"e.	c #1561C9",
"f.	c #197AD4",
"g.	c #1E94DF",
"h.	c #2BADE4",
"i.	c #61AED8",
"j.	c #7B8EB3",
"k.	c #2974BF",
"l.	c #6CD6F1",
"m.	c #76DBF2",
"n.	c #7DD9EE",
"o.	c #90E3F1",
"p.	c #9CE8F1",
"q.	c #B1DCDF",
"r.	c #454541",
"s.	c #221105",
"t.	c #200E03",
"u.	c #35385A",
"v.	c #8C3A64",
"w.	c #A8374D",
"x.	c #503B95",
"y.	c #143EA9",
"z.	c #1441B1",
"A.	c #1442B1",
"B.	c #144BB7",
"C.	c #195DC4",
"D.	c #196FCF",
"E.	c #1E86DD",
"F.	c #1F99E6",
"G.	c #21B0ED",
"H.	c #3AC8F1",
"I.	c #7DE4F4",
"J.	c #98EAF1",
"K.	c #80DEEF",
"L.	c #81DEEF",
"M.	c #6CD3EA",
"N.	c #6DD2EA",
"O.	c #70D1E8",
"P.	c #7ED8EB",
"Q.	c #8CE0EF",
"R.	c #9BC9CE",
"S.	c #2B160A",
"T.	c #281409",
"U.	c #241106",
"V.	c #4E5254",
"W.	c #7B92BD",
"X.	c #4C67AE",
"Y.	c #2A63BC",
"Z.	c #1541AC",
"`.	c #143FAE",
" +	c #1540B1",
".+	c #154DB8",
"++	c #1B60C4",
"@+	c #1C70CF",
"#+	c #1D7ED7",
"$+	c #1887DC",
"%+	c #1691E3",
"&+	c #1A95DF",
"*+	c #2D95D7",
"=+	c #7EC9E5",
"-+	c #A2E7ED",
";+	c #88DFEB",
">+	c #72D4E9",
",+	c #5FC6E4",
"'+	c #5BC3E6",
")+	c #53BBDD",
"!+	c #5BC6E7",
"~+	c #7BDDF3",
"{+	c #68898E",
"]+	c #271408",
"^+	c #9AA7B5",
"/+	c #9CC1E6",
"(+	c #9EBFE7",
"_+	c #3668BF",
":+	c #1342AF",
"<+	c #123EAE",
"[+	c #133DAE",
"}+	c #1343B2",
"|+	c #1953BC",
"1+	c #185CC3",
"2+	c #1964CA",
"3+	c #1764CA",
"4+	c #4D88D8",
"5+	c #B8BBD5",
"6+	c #ACACC6",
"7+	c #3B5DAC",
"8+	c #7FCFE7",
"9+	c #8ADDEB",
"0+	c #78D6EB",
"a+	c #50B4DB",
"b+	c #42A5D2",
"c+	c #3CA3D8",
"d+	c #39AAE1",
"e+	c #43BBEB",
"f+	c #70BED6",
"g+	c #251406",
"h+	c #321F00",
"i+	c #A5BCD6",
"j+	c #95BAE2",
"k+	c #89A2CF",
"l+	c #3458B2",
"m+	c #1642AD",
"n+	c #143FAF",
"o+	c #123CAC",
"p+	c #123EAD",
"q+	c #1545B2",
"r+	c #164BB7",
"s+	c #1546B4",
"t+	c #3B73C9",
"u+	c #E2E1E3",
"v+	c #FCFAEE",
"w+	c #FBFBF5",
"x+	c #A8AAC3",
"y+	c #4FA7D7",
"z+	c #7FDBEC",
"A+	c #7ED8EA",
"B+	c #5DBCE3",
"C+	c #3991C5",
"D+	c #2C86CB",
"E+	c #2184D0",
"F+	c #2297E0",
"G+	c #48BDEC",
"H+	c #3B4247",
"I+	c #251306",
"J+	c #1F1300",
"K+	c #302E2C",
"L+	c #94B8DC",
"M+	c #89B2DC",
"N+	c #7B93C2",
"O+	c #A08DB1",
"P+	c #9E92BC",
"Q+	c #1C43AE",
"R+	c #133FAE",
"S+	c #113AA9",
"T+	c #133BA8",
"U+	c #133CAB",
"V+	c #1343AF",
"W+	c #537DAB",
"X+	c #DBD7D1",
"Y+	c #FCF5EB",
"Z+	c #FCFBF0",
"`+	c #D9D7DA",
" @	c #3390D2",
".@	c #69CBE5",
"+@	c #8ADBE9",
"@@	c #6CC0DD",
"#@	c #3275BC",
"$@	c #1F5AB1",
"%@	c #1C56B4",
"&@	c #1A6AC7",
"*@	c #2199E2",
"=@	c #387189",
"-@	c #251305",
";@	c #311B00",
">@	c #3F4144",
",@	c #7FACD8",
"'@	c #7BAAD8",
")@	c #97ACD6",
"!@	c #BCA9C2",
"~@	c #D4B8C5",
"{@	c #9B90BB",
"]@	c #143FAC",
"^@	c #143CAA",
"/@	c #1438A3",
"(@	c #1439A4",
"_@	c #2958B7",
":@	c #5E7583",
"<@	c #92A198",
"[@	c #FAEEE6",
"}@	c #FCF6EB",
"|@	c #DDDADA",
"1@	c #2A91D7",
"2@	c #5AC1E4",
"3@	c #8ADBEB",
"4@	c #8ACAE1",
"5@	c #3C71B9",
"6@	c #3465B2",
"7@	c #2353AD",
"8@	c #1D4CAD",
"9@	c #1C6CC9",
"0@	c #307DA2",
"a@	c #221402",
"b@	c #362201",
"c@	c #1F0F05",
"d@	c #2F2825",
"e@	c #6A9ED1",
"f@	c #689FD4",
"g@	c #A7C1E2",
"h@	c #AAA1C4",
"i@	c #E0C2CB",
"j@	c #CAB3C0",
"k@	c #274B8F",
"l@	c #143AA7",
"m@	c #15349E",
"n@	c #1738A0",
"o@	c #858FC3",
"p@	c #767A7B",
"q@	c #749083",
"r@	c #F5E6E1",
"s@	c #FBEFE5",
"t@	c #C2C1D5",
"u@	c #2B96DA",
"v@	c #4AB8E1",
"w@	c #69CAE9",
"x@	c #8FDCE7",
"y@	c #507071",
"z@	c #272326",
"A@	c #304969",
"B@	c #305A9C",
"C@	c #2156B3",
"D@	c #216298",
"E@	c #1B0C03",
"F@	c #201201",
"G@	c #3B2901",
"H@	c #251308",
"I@	c #5990C4",
"J@	c #6197CF",
"K@	c #A6C1DE",
"L@	c #7286BC",
"M@	c #E8CAD4",
"N@	c #DBB9C3",
"O@	c #5C6670",
"P@	c #2B4495",
"Q@	c #1C2D8C",
"R@	c #283F97",
"S@	c #BEB0C7",
"T@	c #9DA7A3",
"U@	c #7FA895",
"V@	c #EFDCD9",
"W@	c #F7E5DF",
"X@	c #6F8DCF",
"Y@	c #2A94D7",
"Z@	c #32A0DB",
"`@	c #49B8E6",
" #	c #5CCBE8",
".#	c #75CEE0",
"+#	c #2C2D2B",
"@#	c #293F68",
"##	c #224777",
"$#	c #1D0D04",
"%#	c #211006",
"&#	c #211005",
"*#	c #5480B0",
"=#	c #647F98",
"-#	c #707886",
";#	c #6E98CE",
">#	c #BDA8C3",
",#	c #E0BEC6",
"'#	c #A9A8A7",
")#	c #588781",
"!#	c #8A7789",
"~#	c #A78498",
"{#	c #D7B4B8",
"]#	c #DAC3BE",
"^#	c #CECBBB",
"/#	c #F0DCCC",
"(#	c #F2E4CB",
"_#	c #96AFD4",
":#	c #2783CD",
"<#	c #2888D0",
"[#	c #2793D9",
"}#	c #34ADE5",
"|#	c #56CCEE",
"1#	c #5F9BAA",
"2#	c #281707",
"3#	c #372500",
"4#	c #312420",
"5#	c #7A8798",
"6#	c #74A3D4",
"7#	c #5976B4",
"8#	c #CCA0AC",
"9#	c #CAA0AE",
"0#	c #BA8A90",
"a#	c #74363E",
"b#	c #CA937E",
"c#	c #F4CFAD",
"d#	c #F5D5B5",
"e#	c #F6D4AE",
"f#	c #F2BC92",
"g#	c #F09A6F",
"h#	c #AA95A4",
"i#	c #235BB3",
"j#	c #1F58B6",
"k#	c #1F70C9",
"l#	c #1F92DA",
"m#	c #35B0EA",
"n#	c #64C3E1",
"o#	c #291707",
"p#	c #331D00",
"q#	c #788699",
"r#	c #598AC4",
"s#	c #5F87C0",
"t#	c #E1A4A4",
"u#	c #E58974",
"v#	c #E07C64",
"w#	c #D6654F",
"x#	c #D5644E",
"y#	c #DD7257",
"z#	c #E68360",
"A#	c #ED9269",
"B#	c #ED9266",
"C#	c #D88A76",
"D#	c #464A97",
"E#	c #223793",
"F#	c #1F3B98",
"G#	c #1A44A8",
"H#	c #1C69C4",
"I#	c #2698E1",
"J#	c #47BAF0",
"K#	c #375358",
"L#	c #241504",
"M#	c #412C04",
"N#	c #221107",
"O#	c #211004",
"P#	c #2B1609",
"Q#	c #586271",
"R#	c #4F7EBF",
"S#	c #3761AE",
"T#	c #7370AA",
"U#	c #CE848D",
"V#	c #DF6D5B",
"W#	c #D55646",
"X#	c #D04E3E",
"Y#	c #D55340",
"Z#	c #DF6143",
"`#	c #DE6F48",
" $	c #B0645C",
".$	c #3A337A",
"+$	c #242D82",
"@$	c #233085",
"#$	c #20348E",
"$$	c #1C3998",
"%$	c #1949AC",
"&$	c #1F71CA",
"*$	c #2DA1E7",
"=$	c #3B7287",
"-$	c #3D2B02",
";$	c #180B01",
">$	c #190C02",
",$	c #1D0D03",
"'$	c #3E3E40",
")$	c #5682C0",
"!$	c #2F4FA0",
"~$	c #2C4190",
"{$	c #2B3885",
"]$	c #5C3369",
"^$	c #9E3041",
"/$	c #AD2630",
"($	c #99293F",
"_$	c #6A2461",
":$	c #442F67",
"<$	c #281F56",
"[$	c #2A2568",
"}$	c #2A2B76",
"|$	c #262E7D",
"1$	c #233186",
"2$	c #203490",
"3$	c #1B3A9B",
"4$	c #1B55B3",
"5$	c #2688DC",
"6$	c #367596",
"7$	c #3E2B03",
"8$	c #4F71A7",
"9$	c #314C9E",
"0$	c #3D3781",
"a$	c #742E5D",
"b$	c #A54855",
"c$	c #BB4548",
"d$	c #C5514E",
"e$	c #DC826D",
"f$	c #417FC5",
"g$	c #A284A5",
"h$	c #D4AE98",
"i$	c #978B89",
"j$	c #3B3478",
"k$	c #3C3E86",
"l$	c #313989",
"m$	c #26368C",
"n$	c #223794",
"o$	c #1D43A3",
"p$	c #2174CF",
"q$	c #2D688D",
"r$	c #211302",
"s$	c #392801",
"t$	c #3F5375",
"u$	c #7E679C",
"v$	c #A2394D",
"w$	c #B56A76",
"x$	c #D37979",
"y$	c #C5605B",
"z$	c #DC7C69",
"A$	c #F7BF94",
"B$	c #74ABD9",
"C$	c #2673BD",
"D$	c #98567C",
"E$	c #DF9D90",
"F$	c #DDCFCE",
"G$	c #D4CCCF",
"H$	c #9C97B4",
"I$	c #404693",
"J$	c #293991",
"K$	c #213E9C",
"L$	c #1F6AC6",
"M$	c #265373",
"N$	c #201202",
"O$	c #372700",
"P$	c #4D4448",
"Q$	c #A98CAA",
"R$	c #8B5F87",
"S$	c #8A779D",
"T$	c #D37870",
"U$	c #CD6D65",
"V$	c #DC826F",
"W$	c #F0B290",
"X$	c #4083D0",
"Y$	c #447FBF",
"Z$	c #CBC3D1",
"`$	c #ECE1E1",
" %	c #F3E8E1",
".%	c #FAF3ED",
"+%	c #9E9DBD",
"@%	c #374899",
"#%	c #253F9A",
"$%	c #216ABF",
"%%	c #2E2C2F",
"&%	c #251400",
"*%	c #382F2F",
"=%	c #C2AFC7",
"-%	c #9A97BE",
";%	c #7672A0",
">%	c #7A6389",
",%	c #D97E73",
"'%	c #CF6D63",
")%	c #D37267",
"!%	c #B0778B",
"~%	c #1C58BB",
"{%	c #6471B1",
"]%	c #B9BDD5",
"^%	c #F7F2EB",
"/%	c #FCFBF3",
"(%	c #FBFCF7",
"_%	c #F6F0EA",
":%	c #DDD4C9",
"<%	c #4B5B92",
"[%	c #2D489F",
"}%	c #285AA0",
"|%	c #251208",
"1%	c #221106",
"2%	c #171000",
"3%	c #907C86",
"4%	c #CFB8CD",
"5%	c #ADA3C7",
"6%	c #6E81AF",
"7%	c #4D4C85",
"8%	c #AE677D",
"9%	c #D0685E",
"0%	c #AE5A6F",
"a%	c #313C99",
"b%	c #334AA2",
"c%	c #AAA8C8",
"d%	c #ABB1CC",
"e%	c #C0C2D5",
"f%	c #E3DFE1",
"g%	c #F9F5ED",
"h%	c #FBFBF6",
"i%	c #FAF8F0",
"j%	c #392E2F",
"k%	c #38539D",
"l%	c #2B426F",
"m%	c #291B06",
"n%	c #422E08",
"o%	c #D4CACC",
"p%	c #E2CCDE",
"q%	c #A0B0D0",
"r%	c #809DC1",
"s%	c #516095",
"t%	c #24328B",
"u%	c #2C318A",
"v%	c #1D3090",
"w%	c #183194",
"x%	c #757DB7",
"y%	c #AAA6C4",
"z%	c #B4ACC4",
"A%	c #B6AEC4",
"B%	c #BCB8CB",
"C%	c #CEC9D6",
"D%	c #F3EDE8",
"E%	c #FCFCF5",
"F%	c #8A8882",
"G%	c #332F44",
"H%	c #2D1B15",
"I%	c #403307",
"J%	c #E1D2DA",
"K%	c #B3B1CE",
"L%	c #A7B2CD",
"M%	c #9CADC9",
"N%	c #6D7AA5",
"O%	c #262D7E",
"P%	c #202D84",
"Q%	c #22347A",
"R%	c #1C3A9C",
"S%	c #5960A6",
"T%	c #BCA8C1",
"U%	c #B89DB2",
"V%	c #BEA3B8",
"W%	c #C2A6B8",
"X%	c #C3B1C2",
"Y%	c #CEC2D0",
"Z%	c #F1EAE5",
"`%	c #B5B3AB",
" &	c #241107",
".&	c #2B1A08",
"+&	c #48360B",
"@&	c #46413E",
"#&	c #D0BCCF",
"$&	c #B3ABC4",
"%&	c #AEA6C0",
"&&	c #9FA3C1",
"*&	c #8984A9",
"=&	c #343788",
"-&	c #223089",
";&	c #1F284F",
">&	c #27408D",
",&	c #1A3492",
"'&	c #8B80B0",
")&	c #BA91AA",
"!&	c #C9A0B2",
"~&	c #C298AB",
"{&	c #D1A7B4",
"]&	c #D4B0BB",
"^&	c #E0C8CD",
"/&	c #958E89",
"(&	c #271905",
"_&	c #48370B",
":&	c #1B0C02",
"<&	c #3E3634",
"[&	c #D1B3C7",
"}&	c #B99FBA",
"|&	c #B298B3",
"1&	c #B9A2BA",
"2&	c #A58293",
"3&	c #3E4284",
"4&	c #243692",
"5&	c #314970",
"6&	c #283762",
"7&	c #1F3C9B",
"8&	c #284697",
"9&	c #485894",
"0&	c #998CAC",
"a&	c #D4AAB5",
"b&	c #DCA2AB",
"c&	c #E6ABAC",
"d&	c #D7AFAD",
"e&	c #261B14",
"f&	c #1B0D03",
"g&	c #1A0C01",
"h&	c #291600",
"i&	c #B3929C",
"j&	c #CA9CB4",
"k&	c #C28CA3",
"l&	c #C698A5",
"m&	c #685350",
"n&	c #3C4985",
"o&	c #233996",
"p&	c #375886",
"q&	c #2B1B14",
"r&	c #2A499D",
"s&	c #1F3F9D",
"t&	c #303652",
"u&	c #312723",
"v&	c #6B5652",
"w&	c #866760",
"x&	c #41312A",
"y&	c #443008",
"z&	c #261407",
"A&	c #6A5353",
"B&	c #866C71",
"C&	c #534341",
"D&	c #3B4785",
"E&	c #203997",
"F&	c #2F5588",
"G&	c #2D3F7C",
"H&	c #1F3EA0",
"I&	c #305094",
"J&	c #211602",
"K&	c #3A2901",
"L&	c #4C3D3B",
"M&	c #897589",
"N&	c #535595",
"O&	c #1F3692",
"P&	c #3E6099",
"Q&	c #3B2927",
"R&	c #2E2A47",
"S&	c #2042A4",
"T&	c #284EAC",
"U&	c #8B919E",
"V&	c #9C9891",
"W&	c #77726D",
"X&	c #231402",
"Y&	c #452E06",
"Z&	c #261307",
"`&	c #9C8388",
" *	c #C5A9C2",
".*	c #A4A4C3",
"+*	c #95A0C4",
"@*	c #8C89B0",
"#*	c #A8849E",
"$*	c #807281",
"%*	c #9A9DBF",
"&*	c #CECAD6",
"**	c #EADDDA",
"=*	c #F8EEE5",
"-*	c #F6F4E9",
";*	c #221302",
">*	c #331E00",
",*	c #8F7A7F",
"'*	c #C0A0BB",
")*	c #A193B3",
"!*	c #9B8FAE",
"~*	c #9C7A99",
"{*	c #B8798E",
"]*	c #B299B3",
"^*	c #AF98B3",
"/*	c #BD9CB5",
"(*	c #D7B2BF",
"_*	c #F3DFDA",
":*	c #EDE8DF",
"<*	c #514943",
"[*	c #1E1500",
"}*	c #23160F",
"|*	c #716968",
"1*	c #CD9FB2",
"2*	c #A38FB0",
"3*	c #99A0C2",
"4*	c #979DBC",
"5*	c #987A9E",
"6*	c #B07690",
"7*	c #886E7A",
"8*	c #A695B4",
"9*	c #AEAAC7",
"0*	c #DBCBD5",
"a*	c #F2DDDB",
"b*	c #F7E5E2",
"c*	c #B9B2AB",
"d*	c #967D85",
"e*	c #CFB8C0",
"f*	c #E8D4DC",
"g*	c #DAC2D4",
"h*	c #B78EAC",
"i*	c #94294B",
"j*	c #8F4366",
"k*	c #87597A",
"l*	c #8A5172",
"m*	c #BE7580",
"n*	c #987F8F",
"o*	c #A589A9",
"p*	c #9E7192",
"q*	c #C0496D",
"r*	c #E7858C",
"s*	c #F9E1DA",
"t*	c #D3C7C3",
"u*	c #4F4B48",
"v*	c #C1ADB1",
"w*	c #ED9BB3",
"x*	c #BB365B",
"y*	c #A891AC",
"z*	c #A3B1CD",
"A*	c #9FAFCC",
"B*	c #A093B3",
"C*	c #A7265E",
"D*	c #8F1039",
"E*	c #800B2B",
"F*	c #D56B70",
"G*	c #A97169",
"H*	c #8D2342",
"I*	c #921537",
"J*	c #B88FA8",
"K*	c #E7DADA",
"L*	c #F9F6EB",
"M*	c #FCFAF7",
"N*	c #F5F3F0",
"O*	c #9F9D95",
"P*	c #1F0E05",
"Q*	c #7B7373",
"R*	c #E4AFBD",
"S*	c #DC5C7B",
"T*	c #BC0E3E",
"U*	c #AA0B3B",
"V*	c #A22A54",
"W*	c #A3AAC4",
"X*	c #A3B7CE",
"Y*	c #9FAEC9",
"Z*	c #966380",
"`*	c #820A2C",
" =	c #7F0929",
".=	c #D61332",
"+=	c #C0484E",
"@=	c #920F33",
"#=	c #9E708F",
"$=	c #A0A1C1",
"%=	c #BBAEC6",
"&=	c #D998A2",
"*=	c #E56075",
"==	c #ED6475",
"-=	c #EFBDB7",
";=	c #998D84",
">=	c #8C7D7F",
",=	c #E495A6",
"'=	c #C21C48",
")=	c #AF0A3D",
"!=	c #AD154D",
"~=	c #B32A67",
"{=	c #B63C77",
"]=	c #9F7896",
"^=	c #9EABC2",
"/=	c #979BB6",
"(=	c #8C728C",
"_=	c #780B28",
":=	c #800828",
"<=	c #CF0729",
"[=	c #BA3D47",
"}=	c #8C233E",
"|=	c #9F95B4",
"1=	c #A19EBC",
"2=	c #994F6C",
"3=	c #B50832",
"4=	c #DC0936",
"5=	c #ED2144",
"6=	c #EE8185",
"7=	c #F5ECDE",
"8=	c #585048",
"9=	c #624E52",
"0=	c #CF798D",
"a=	c #B10E3F",
"b=	c #AD114B",
"c=	c #B01D5B",
"d=	c #B22762",
"e=	c #B2285F",
"f=	c #AC2151",
"g=	c #973957",
"h=	c #928BA6",
"i=	c #8B7B96",
"j=	c #7E5D78",
"k=	c #73102A",
"l=	c #872F3B",
"m=	c #C56362",
"n=	c #995051",
"o=	c #8A435D",
"p=	c #9F91AE",
"q=	c #96768F",
"r=	c #9D1541",
"s=	c #A2103C",
"t=	c #B70633",
"u=	c #DC0735",
"v=	c #EF304E",
"w=	c #F6CAC4",
"x=	c #CDBDAF",
"y=	c #7C5667",
"z=	c #852854",
"A=	c #882454",
"B=	c #8C2756",
"C=	c #8F2855",
"D=	c #892953",
"E=	c #7F2950",
"F=	c #75294D",
"G=	c #622646",
"H=	c #584761",
"I=	c #4D3951",
"J=	c #3A2036",
"K=	c #3E1B2B",
"L=	c #58282B",
"M=	c #5F3A33",
"N=	c #421A26",
"O=	c #7C4460",
"P=	c #99809C",
"Q=	c #9C4A64",
"R=	c #A01338",
"S=	c #A31342",
"T=	c #A61142",
"U=	c #B50636",
"V=	c #E00C39",
"W=	c #F07881",
"X=	c #F9E5D6",
"Y=	c #5C453F",
"Z=	c #241518",
"`=	c #2B1A2B",
" -	c #2A1D32",
".-	c #2A1E37",
"+-	c #292039",
"@-	c #292139",
"#-	c #251F30",
"$-	c #201623",
"%-	c #211720",
"&-	c #1F1110",
"*-	c #2F1E33",
"=-	c #604965",
"--	c #812E4B",
";-	c #9D1538",
">-	c #9D1037",
",-	c #A10E3B",
"'-	c #A60E3F",
")-	c #B6093B",
"!-	c #DE2145",
"~-	c #F5BEB5",
"{-	c #9D6C67",
"]-	c #1F1118",
"^-	c #2E223C",
"/-	c #452648",
"(-	c #5C254C",
"_-	c #6E274D",
":-	c #79294E",
"<-	c #883054",
"[-	c #A54965",
"}-	c #CC878E",
"|-	c #8D7972",
"1-	c #1C0C01",
"2-	c #29130F",
"3-	c #2A1621",
"4-	c #2F1C2A",
"5-	c #35232E",
"6-	c #371F26",
"7-	c #341A19",
"  . + + + + + + @ #       $ % + + + + + + + + + + + + + + + + + + + + + + + + + + + % & * ",
"= - ; ; ; ; ; ; > , , , = ' + ; ; ; ; ; ) ! ~ { ; ] ^ ; ; ; ; ; ; ; ; ; ; ; ; ; ; ; + & * ",
"/ ; ; ; ; ; ; ; ; ; ; ; > ( + ; ; _ : < [ } | 1 2 3 4 ; ; ; ; ; ; ; ; ; ; ; ; ; ; ; + & * ",
"/ ; ; ; ; ; ; ; ; ; ; ; > ( + ; 5 6 7 8 9 0 a b c d e f ; ; ; ; ; ; ; ; ; ; ; ; ; - g & * ",
", h h h h h i ; j k l m n o p q r s t u v w x y z A B C D ; ; ; ; ; h h h h h h / =   & * ",
"E E E E E F G > H I J K L M N O P Q R S T U V W X Y Z `  ...+.> > > @.E E E E E E E   & * ",
"$ $ $ $ $ ' #.$.$.%.&.*.=.-.;.>.,.'.).!.~.{.].^./.(._.:.<.[.}.|.1.$.' $ $ $ $ $ $ $ 2.& * ",
"3.3.3.3.3.3.3.3.3.4.5.6.7.8.9.0.a.b.c.d.e.f.g.h.i.j.k.l.m.n.o.p.q.r.+ + + + + s.      t.* ",
"3.3.3.3.3.3.3.3.3.3.u.v.w.x.y.z.A.B.C.D.E.F.G.H.I.J.K.L.M.N.O.P.Q.R.; ; ; ; S.T.F F F U.* ",
"3.3.3.3.3.3.3.3.3.3.V.W.X.Y.Z.`. +.+++@+#+$+%+&+*+=+-+;+>+,+'+)+!+~+{+; ; ; ]+F F F F U.* ",
"3.3.3.3.3.3.3.3.3.3.^+/+(+_+:+<+[+}+|+1+2+3+4+5+6+7+8+9+0+a+b+c+d+e+f+; S.]+@.F F F F g+h+",
"3.3.3.3.3.3.3.3.3.3.i+j+k+l+m+n+o+p+q+r+s+t+u+v+w+x+y+z+A+B+C+D+E+F+G+H+T.@.F F F F F I+J+",
"3.3.3.3.3.3.3.3.3.K+L+M+N+O+P+Q+R+S+T+U+V+W+X+Y+Z+`+ @.@+@@@#@$@%@&@*@=@E E E E E E E -@;@",
"3.3.3.3.3.3.3.3.3.>@,@'@)@!@~@{@]@^@/@(@_@:@<@[@}@|@1@2@3@4@5@6@7@8@9@0@' ' ' ' ' ' ' a@b@",
"      $ '       c@d@e@f@g@h@i@j@k@l@m@n@o@p@q@r@s@t@u@v@w@x@y@z@A@B@C@D@3.3.E@      E@F@G@",
"F F F E@  H@H@H@]+; I@J@K@L@M@N@O@P@Q@R@S@T@U@V@W@X@Y@Z@`@ #.#+#3.3.@###3.3.$#%#F F . a@b@",
"F F F E@&#; ; ; ; ; *#=#-#;#>#,#'#)#!#~#{#]#^#/#(#_#:#<#[#}#|#1#3.3.3.3.3.3.3.( F F F 2#3#",
"F F F E@&#; ; ; ; ; 4#; 5#6#7#8#9#0#a#b#c#d#e#f#g#h#i#j#k#l#m#n#3.3.3.3.3.3.3.2.( %#F o#p#",
"F F F E@&#; ; ; ; ; ; ; q#r#s#t#u#v#w#x#y#z#A#B#C#D#E#F#G#H#I#J#K#3.3.3.3.3.3.$ ( %#%#L#M#",
"N#N#N#E@O#P#P#P#P#P#P#P#Q#R#S#T#U#V#W#X#Y#Z#`# $.$+$@$#$$$%$&$*$=$3.3.3.3.3.3.E@N#N#  F@-$",
"' ' ' ;$>$,$,$,$,$,$,$,$'$)$!$~${$]$^$/$($_$:$<$[$}$|$1$2$3$4$5$6$3.3.3.3.3.3.;$' ' $ F@7$",
"3.3.3.3.3.3.3.3.3.3.3.3.3.8$9$0$a$b$c$d$e$f$g$h$i$j$k$l$m$n$o$p$q$3.3.3.3.3.3.3.3.3.3.r$s$",
"3.3.3.3.3.3.3.3.3.3.3.3.3.t$u$v$w$x$y$z$A$B$C$D$E$F$G$H$I$J$K$L$M$,$,$,$,$,$,$,$,$,$( N$O$",
"3.3.3.3.3.3.3.3.3.3.3.3.3.P$Q$R$S$T$U$V$W$X$%@Y$Z$`$ %.%+%@%#%$%%%P#P#P#P#P#P#P#P#P#]+I+&%",
"3.3.3.3.3.3.3.3.3.3.3.3.*%=%-%;%>%,%'%)%!%~%{%]%^%/%(%_%:%<%[%}%; ; ; ; ; ; ; ; ; T.|%1%2%",
"3.3.3.3.3.3.3.3.3.3.3.3.3%4%5%6%7%8%9%0%a%b%c%d%e%f%g%h%i%j%k%l%; ; ; ; ; ; ; ; ; , F m%n%",
"3.3.3.3.3.3.3.3.3.3.3.3.o%p%q%r%s%t%u%v%w%x%y%z%A%B%C%D%E%F%G%H%; ; ; ; ; ; ; ; i , F o#I%",
"3.3.3.3.3.3.3.3.3.3.3.3.J%K%L%M%N%O%P%Q%R%S%T%U%V%W%X%Y%Z%`%; ; ; ; ; ; ; ; T.H@H@ &F .&+&",
"3.3.3.3.3.3.3.3.3.3.3.@&#&$&%&&&*&=&-&;&>&,&'&)&!&~&{&]&^&/&+ + + + + + + + g         (&_&",
"' ' ' ' ' ' ' ' $ 3.:&<&[&}&|&1&2&3&4&5&6&7&8&9&0&a&b&c&d&e&( ( f&' ' ' ' ' ' ' ' ' $ g&h&",
"E E E E E E E E . 3.I+> i&j&k&l&m&n&o&p&q&r&s&t&u&> v&w&x&> > > - E E E E E E E E E   a@y&",
"F F F F F F F F . 3.z&; ; A&B&C&; D&E&F&; G&H&I&; ; ; ; ; ; ; ; S.h h h h h h h h h s.J&K&",
"F F F F F F F F . 3.z&; ; ; ; L&M&N&O&P&Q&R&S&T&U&V&W&; ; ; ; ; ; ; ; ; ; ; ; ; ; ; + X&Y&",
"F F F F F F F F . 3.Z&; ; ; ; `& *.*+*@*#*$*%*&***=*-*; ; ; ; ; ; ; ; ; ; ; ; ; ; ; + ;*>*",
"F F F F F F F F . 3.E , , , , ,*'*)*!*~*{*]*^*/*(*_*:*<*; ; ; ; ; ; ; ; ; ; ; ; ; ; + g&[*",
"                ( 3.(     }*|*1*2*3*4*5*6*7*8*9*0*a*b*c*+ + + + + + + + + + + + + + % & * ",
"2.$ $ $ $ $ $ $ $ $ $ d*e*f*g*h*i*j*k*l*m*n*o*p*q*r*s*t*u*$ $ $ $ 3.3.3.3.3.3.3.3.3.3.& * ",
"  E E E E E E E E { v*w*x*y*z*A*B*C*D*E*F*G*H*I*J*K*L*M*N*O*E E P*3.3.3.3.3.3.3.3.3.3.& * ",
"  F F F F F F F Q*R*S*T*U*V*W*X*Y*Z*`* =.=+=@=#=$=%=&=*===-=;=,$E@3.3.3.3.3.3.3.3.3.3.& * ",
"  F F F F F F >=,='=)=!=~={=]=^=/=(=_=:=<=[=}=|=1=2=3=4=5=6=7=8=3.3.3.3.3.3.3.3.3.3.3.& * ",
"  F F F F F 9=0=a=b=c=d=e=f=g=h=i=j=k=l=m=n=o=p=q=r=s=t=u=v=w=x=3.3.3.3.3.3.3.3.3.3.3.& * ",
"  F F F F F y=z=A=B=C=D=E=F=G=H=I=J=K=L=M=N=O=P=Q=R=S=T=U=V=W=X=Y=3.3.3.$ c@E@3.3.3.3.& * ",
"f&          Z=`= -.-+-@-#-$-%-&-3.(     $ 3.*-=---;->-,-'-)-!-~-{-3.3.3.2.  ' 3.3.3.3.& * ",
"& & & & & & & & & & & & & & & & & & & & & & & ]-^-/-(-_-:-<-[-}-|-& & & & & & & & & & 1-* ",
"* * * * * * * * * * * * * * * * * * * * * * * * * * 2-3-4-5-6-7-* * * * * * * * * * * * * "};
