/* XPM */
static char * backk_xpm[] = {
"45 45 103 2",
"  	c #1E0E04",
". 	c #200F05",
"+ 	c #241206",
"@ 	c #231106",
"# 	c #1F0E04",
"$ 	c #190B02",
"% 	c #1F0F04",
"& 	c #1A0B01",
"* 	c #281000",
"= 	c #251207",
"- 	c #281408",
"; 	c #2C170A",
"> 	c #2A1609",
", 	c #261308",
"' 	c #1A0C02",
") 	c #281509",
"! 	c #1C0D03",
"~ 	c #201005",
"{ 	c #291509",
"] 	c #2B170A",
"^ 	c #221006",
"/ 	c #231107",
"( 	c #291508",
"_ 	c #1C0D02",
": 	c #221105",
"< 	c #241207",
"[ 	c #1B0D02",
"} 	c #180B01",
"| 	c #190C02",
"1 	c #180B02",
"2 	c #170A01",
"3 	c #180A01",
"4 	c #1D0D04",
"5 	c #211005",
"6 	c #200E03",
"7 	c #2B160A",
"8 	c #281409",
"9 	c #241106",
"0 	c #281508",
"a 	c #271408",
"b 	c #251406",
"c 	c #321F00",
"d 	c #261307",
"e 	c #2A1509",
"f 	c #251306",
"g 	c #1F1300",
"h 	c #251305",
"i 	c #311B00",
"j 	c #1B0C02",
"k 	c #221402",
"l 	c #362201",
"m 	c #1F0F05",
"n 	c #231206",
"o 	c #1B0C03",
"p 	c #201201",
"q 	c #3B2901",
"r 	c #251308",
"s 	c #2B1609",
"t 	c #200F04",
"u 	c #211006",
"v 	c #241107",
"w 	c #1D0D03",
"x 	c #281707",
"y 	c #372500",
"z 	c #291707",
"A 	c #331D00",
"B 	c #271308",
"C 	c #241504",
"D 	c #412C04",
"E 	c #221107",
"F 	c #211004",
"G 	c #3D2B02",
"H 	c #3E2B03",
"I 	c #211302",
"J 	c #392801",
"K 	c #201202",
"L 	c #372700",
"M 	c #251400",
"N 	c #251208",
"O 	c #221106",
"P 	c #171000",
"Q 	c #291B06",
"R 	c #422E08",
"S 	c #403307",
"T 	c #2B1A08",
"U 	c #48360B",
"V 	c #1D0E04",
"W 	c #271905",
"X 	c #48370B",
"Y 	c #1B0D03",
"Z 	c #1A0C01",
"` 	c #291600",
" .	c #443008",
"..	c #261407",
"+.	c #211602",
"@.	c #3A2901",
"#.	c #231402",
"$.	c #452E06",
"%.	c #221302",
"&.	c #331E00",
"*.	c #1E1500",
"=.	c #1F0E05",
"-.	c #1C0C01",
"  . + + + + + + @ #       $ % + + + + + + + + + + + + + + + + + + + + + + + + + + + % & * ",
"= - ; ; ; ; ; ; > , , , = ' + ; ; ; ; ; ; ; ; ; ; ; ; ; ; ; ; ; ; ; ; ; ; ; ; ; ; ; + & * ",
") ; ; ; ; ; ; ; ; ; ; ; > ! + ; ; ; ; ; ; ; ; ; ; ; ; ; ; ; ; ; ; ; ; ; ; ; ; ; ; ; + & * ",
") ; ; ; ; ; ; ; ; ; ; ; > ! + ; ; ; ; ; ; ; ; ; ; ; ; ; ; ; ; ; ; ; ; ; ; ; ; ; ; - ~ & * ",
", { { { { { ] ; ; ; ; ; > ! + ; ; ; ; ; ; ; ; ; ; ; ; ; ; ; ; ; ; ; { { { { { { ) =   & * ",
"^ ^ ^ ^ ^ / ( > > > > > ( _ : > > > > > > > > > > > > > > > > > > > < ^ ^ ^ ^ ^ ^ ^   & * ",
"$ $ $ $ $ ' [ _ _ _ _ _ [ } | _ _ _ _ _ _ _ _ _ _ _ _ _ _ _ _ _ _ _ ' $ $ $ $ $ $ $ 1 & * ",
"2 2 2 2 2 2 2 2 2 2 2 2 2 2 2 2 2 2 2 3 4               5 + + + + + + + + + + :       6 * ",
"2 2 2 2 2 2 2 2 2 2 2 2 2 2 2 2 2 2 2 1 @ , , , , , , , { ; ; ; ; ; ; ; ; ; 7 8 / / / 9 * ",
"2 2 2 2 2 2 2 2 2 2 2 2 2 2 2 2 2 2 2 $ 0 ; ; ; ; ; ; ; ; ; ; ; ; ; ; ; ; ; a / / / / 9 * ",
"2 2 2 2 2 2 2 2 2 2 2 2 2 2 2 2 2 2 2 $ 0 ; ; ; ; ; ; ; ; ; ; ; ; ; ; ; 7 a < / / / / b c ",
"2 2 2 2 2 2 2 2 2 2 2 2 2 2 2 2 2 2 2 $ d > ; ; ; ; ; ; ; ; ; ; ; ; e { 8 < / / / / / f g ",
"2 2 2 2 2 2 2 2 2 2 2 2 2 2 2 2 2 2 2 } . , > > > > > > > > > > > > < ^ ^ ^ ^ ^ ^ ^ ^ h i ",
"2 2 2 2 2 2 2 2 2 2 2 2 2 2 2 2 2 2 2 2 $ j ! ! ! ! ! ! ! ! ! ! ! ! ' ' ' ' ' ' ' ' ' k l ",
"      $ '       m n + + + + + + + + + + + + + + + + + + + + + ! 2 2 2 2 2 2 o       o p q ",
"/ / / o   r r r a ; ; ; ; ; ; ; ; ; ; ; ; ; ; ; ; ; ; s > > > t 2 2 2 2 2 2 4 u / / . k l ",
"/ / / o 5 ; ; ; ; ; ; ; ; ; ; ; ; ; ; ; ; ; ; ; ; ; ; , v v v w 2 2 2 2 2 2 2 ! / / / x y ",
"/ / / o 5 ; ; ; ; ; ; ; ; ; ; ; ; ; ; ; ; { , , , , , < / / / ! 2 2 2 2 2 2 2 1 ! u / z A ",
"/ / / o 5 ; ; ; ; ; ; ; ; ; ; ; ; ; ; ; ; { B B B B B B B , / ! 2 2 2 2 2 2 2 $ ! u u C D ",
"E E E o F s s s s s s s s s s s s s s s s s s s s s s s s { / ! 2 2 2 2 2 2 2 o E E   p G ",
"' ' ' } | w w w w w w w w w w w w w w w w w w w w w w w w ! ' } 2 2 2 2 2 2 2 } ' ' $ p H ",
"2 2 2 2 2 2 2 2 2 2 2 2 2 2 2 2 2 2 2 2 2 2 2 2 2 2 2 2 2 2 2 2 2 2 2 2 2 2 2 2 2 2 2 I J ",
"2 2 2 2 2 2 2 2 2 2 2 2 2 2 2 2 2 2 2 2 2 2 2 2 2 $ w w w w w w w w w w w w w w w w ! K L ",
"2 2 2 2 2 2 2 2 2 2 2 2 2 2 2 2 2 2 2 2 2 2 2 2 2 % s s s s s s s s s s s s s s s s a f M ",
"2 2 2 2 2 2 2 2 2 2 2 2 2 2 2 2 2 2 2 2 2 2 2 2 2 t ; ; ; ; ; ; ; ; ; ; ; ; ; ; ; 8 N O P ",
"2 2 2 2 2 2 2 2 2 2 2 2 2 2 2 2 2 2 2 2 2 2 2 2 2 t ; ; ; ; ; ; ; ; ; ; ; ; ; ; ; , / Q R ",
"2 2 2 2 2 2 2 2 2 2 2 2 2 2 2 2 2 2 2 2 2 2 2 3 2 t ; ; ; ; ; ; ; ; ; ; ; ; ; ; ] , / z S ",
"2 2 2 2 2 2 2 2 2 2 2 2 2 2 2 2 2 2 2 2 2 2 $ . o t ; ; ; ; ; ; ; ; ; ; ; ; 8 r r v / T U ",
"2 2 2 2 2 2 2 2 2 2 2 2 2 2 2 2 2 2 2 2 2 2 $ V ' ! + + + + + + + + + + + + ~         W X ",
"' ' ' ' ' ' ' ' $ 2 j ! ! ! ! ! ! ! ! ! ! ! ! ! ! ! ! ! ! ! ! ! Y ' ' ' ' ' ' ' ' ' $ Z ` ",
"^ ^ ^ ^ ^ ^ ^ ^ . 2 f > > > > > > > > > > > > > > > > > > > > > - ^ ^ ^ ^ ^ ^ ^ ^ ^   k  .",
"/ / / / / / / / . 2 ..; ; ; ; ; ; ; ; ; ; ; ; ; ; ; ; ; ; ; ; ; 7 { { { { { { { { { : +.@.",
"/ / / / / / / / . 2 ..; ; ; ; ; ; ; ; ; ; ; ; ; ; ; ; ; ; ; ; ; ; ; ; ; ; ; ; ; ; ; + #.$.",
"/ / / / / / / / . 2 d ; ; ; ; ; ; ; ; ; ; ; ; ; ; ; ; ; ; ; ; ; ; ; ; ; ; ; ; ; ; ; + %.&.",
"/ / / / / / / / . 2 ^ , , , , , , , 8 ; ; ; ; ; ; ; ; ; ; ; ; ; ; ; ; ; ; ; ; ; ; ; + Z *.",
"                ! 2 !               ~ + + + + + + + + + + + + + + + + + + + + + + + % & * ",
"1 $ $ $ $ $ $ $ $ $ $ $ $ $ $ $ 2 2 2 2 2 2 2 2 2 3 $ $ $ $ $ $ $ 2 2 2 2 2 2 2 2 2 2 & * ",
"  ^ ^ ^ ^ ^ ^ ^ ^ ^ ^ ^ ^ ^ ^ . 3 2 2 2 2 2 2 2 2 o ^ ^ ^ ^ ^ ^ =.2 2 2 2 2 2 2 2 2 2 & * ",
"  / / / / / / / / / / / / / / u 3 2 2 2 2 2 2 2 2 $ w w w w w w o 2 2 2 2 2 2 2 2 2 2 & * ",
"  / / / / / / / / / / / / / / u 3 2 2 2 2 2 2 2 2 2 2 2 2 2 2 2 2 2 2 2 2 2 2 2 2 2 2 & * ",
"  / / / / / / / / / / / / / / u 3 2 2 2 2 2 2 2 2 2 2 2 2 2 2 2 2 2 2 2 2 2 2 2 2 2 2 & * ",
"  / / / / / / / / / / / / / / u 3 V . m $ 2 2 2 2 2 2 2 2 2 2 2 2 2 2 2 $ m o 2 2 2 2 & * ",
"Y                             4 2 !     $ 2 2 2 2 2 2 2 2 2 2 2 2 2 2 2 1   ' 2 2 2 2 & * ",
"& & & & & & & & & & & & & & & & & & & & & & & & & & & & & & & & & & & & & & & & & & & -.* ",
"* * * * * * * * * * * * * * * * * * * * * * * * * * * * * * * * * * * * * * * * * * * * * "};
