/* XPM */
static char * colect1_xpm[] = {
"45 45 576 2",
"  	c #1E0E04",
". 	c #200F05",
"+ 	c #241206",
"@ 	c #231106",
"# 	c #1F0E04",
"$ 	c #190B02",
"% 	c #1F0F04",
"& 	c #1A0B01",
"* 	c #281000",
"= 	c #251207",
"- 	c #281408",
"; 	c #2C170A",
"> 	c #2A1609",
", 	c #261308",
"' 	c #1A0C02",
") 	c #281509",
"! 	c #1C0D03",
"~ 	c #201005",
"{ 	c #291509",
"] 	c #2B170A",
"^ 	c #221006",
"/ 	c #231107",
"( 	c #291508",
"_ 	c #1C0D02",
": 	c #221105",
"< 	c #241207",
"[ 	c #1B0D02",
"} 	c #180B01",
"| 	c #190C02",
"1 	c #180B02",
"2 	c #170A01",
"3 	c #180A01",
"4 	c #1D0D04",
"5 	c #211005",
"6 	c #200E03",
"7 	c #1A0F03",
"8 	c #2D2611",
"9 	c #454023",
"0 	c #6C6437",
"a 	c #898145",
"b 	c #938F48",
"c 	c #959147",
"d 	c #958F48",
"e 	c #898344",
"f 	c #6B6333",
"g 	c #4A4120",
"h 	c #352913",
"i 	c #281609",
"j 	c #2B160A",
"k 	c #281409",
"l 	c #241106",
"m 	c #2A2210",
"n 	c #6B6643",
"o 	c #A49E6F",
"p 	c #D1CE8D",
"q 	c #EBEA9D",
"r 	c #F3F19A",
"s 	c #F5F291",
"t 	c #F6F187",
"u 	c #F6F080",
"v 	c #F4EF7E",
"w 	c #EAE579",
"x 	c #D0C96B",
"y 	c #A19C50",
"z 	c #6D6631",
"A 	c #382913",
"B 	c #271408",
"C 	c #353019",
"D 	c #949067",
"E 	c #D0CDA1",
"F 	c #EDE7B8",
"G 	c #EEE8B2",
"H 	c #E3DDA3",
"I 	c #DBD494",
"J 	c #D9D087",
"K 	c #DDD17B",
"L 	c #E4D675",
"M 	c #ECD978",
"N 	c #F3DC7C",
"O 	c #F4E279",
"P 	c #ECE377",
"Q 	c #CFCB6D",
"R 	c #969353",
"S 	c #493C22",
"T 	c #251406",
"U 	c #321F00",
"V 	c #3F3721",
"W 	c #AAA480",
"X 	c #E3E0B9",
"Y 	c #E7E1B6",
"Z 	c #CFC59B",
"` 	c #B0A279",
" .	c #97865E",
"..	c #887954",
"+.	c #85784F",
"@.	c #907F4D",
"#.	c #A08C51",
"$.	c #B49C59",
"%.	c #CCAE61",
"&.	c #DEBE61",
"*.	c #EBD266",
"=.	c #F0E57F",
"-.	c #E1E191",
";.	c #B0A970",
">.	c #534529",
",.	c #2A1509",
"'.	c #251306",
").	c #1F1300",
"!.	c #312813",
"~.	c #A6A17B",
"{.	c #E8E3BD",
"].	c #DED8AA",
"^.	c #ACA077",
"/.	c #796C51",
"(.	c #54483F",
"_.	c #42363A",
":.	c #3D323C",
"<.	c #43373D",
"[.	c #51413E",
"}.	c #62513E",
"|.	c #77683C",
"1.	c #928042",
"2.	c #AF9846",
"3.	c #C9AC48",
"4.	c #DFC662",
"5.	c #F3EA96",
"6.	c #EDE8B3",
"7.	c #B2A97B",
"8.	c #43381C",
"9.	c #251305",
"0.	c #311B00",
"a.	c #221708",
"b.	c #8C825A",
"c.	c #DED6AC",
"d.	c #D7CDA2",
"e.	c #9B8C65",
"f.	c #5F5245",
"g.	c #39313A",
"h.	c #342C3C",
"i.	c #433B45",
"j.	c #494748",
"k.	c #4B4845",
"l.	c #544A46",
"m.	c #5E4D43",
"n.	c #64543D",
"o.	c #77633D",
"p.	c #90793E",
"q.	c #A8903E",
"r.	c #C0A448",
"s.	c #DEC56A",
"t.	c #F7ECB1",
"u.	c #E2E1B9",
"v.	c #918B67",
"w.	c #291D0E",
"x.	c #221402",
"y.	c #362201",
"z.	c #5E5132",
"A.	c #C6BA84",
"B.	c #DBD09A",
"C.	c #A19369",
"D.	c #605041",
"E.	c #3D333F",
"F.	c #3E3740",
"G.	c #453D41",
"H.	c #3D373B",
"I.	c #312D31",
"J.	c #2F292A",
"K.	c #352B2A",
"L.	c #483B35",
"M.	c #635543",
"N.	c #776344",
"O.	c #856D3F",
"P.	c #96803F",
"Q.	c #AA9140",
"R.	c #C0A94B",
"S.	c #E5D084",
"T.	c #F4EDBD",
"U.	c #CEC6A1",
"V.	c #645B3F",
"W.	c #1B0C03",
"X.	c #201201",
"Y.	c #3B2901",
"Z.	c #251308",
"`.	c #2C1C0C",
" +	c #908353",
".+	c #DED18D",
"++	c #BBAD74",
"@+	c #736447",
"#+	c #4C3E3A",
"$+	c #544542",
"%+	c #453B40",
"&+	c #332B33",
"*+	c #2D2022",
"=+	c #2B1A13",
"-+	c #2B1810",
";+	c #2C1910",
">+	c #311F18",
",+	c #413326",
"'+	c #675536",
")+	c #8A703F",
"!+	c #967E3F",
"~+	c #A08A3D",
"{+	c #AC9840",
"]+	c #C8B15D",
"^+	c #EBE0A5",
"/+	c #EBE6BB",
"(+	c #988F69",
"_+	c #342411",
":+	c #200F04",
"<+	c #211006",
"[+	c #433218",
"}+	c #B9A763",
"|+	c #D8C67F",
"1+	c #998654",
"2+	c #604F3D",
"3+	c #6C5C43",
"4+	c #655242",
"5+	c #3E3132",
"6+	c #2C1C1D",
"7+	c #2B180E",
"8+	c #2C170B",
"9+	c #2D1A0E",
"0+	c #46331E",
"a+	c #816638",
"b+	c #A38642",
"c+	c #A58F3E",
"d+	c #A8953C",
"e+	c #B59A48",
"f+	c #DCC780",
"g+	c #F4ECB7",
"h+	c #C3BA88",
"i+	c #42371F",
"j+	c #1D0D03",
"k+	c #281707",
"l+	c #372500",
"m+	c #514020",
"n+	c #D1B669",
"o+	c #C5AC67",
"p+	c #867144",
"q+	c #6C5B3B",
"r+	c #8F7B4F",
"s+	c #68573B",
"t+	c #38291F",
"u+	c #2C180E",
"v+	c #2E1B0D",
"w+	c #634B26",
"x+	c #A48540",
"y+	c #B19640",
"z+	c #B29A3F",
"A+	c #AB8E3F",
"B+	c #C8AE5D",
"C+	c #EDE29B",
"D+	c #E1D290",
"E+	c #53472A",
"F+	c #291707",
"G+	c #331D00",
"H+	c #564425",
"I+	c #D4B469",
"J+	c #B79C55",
"K+	c #88713F",
"L+	c #968347",
"M+	c #9E894E",
"N+	c #655433",
"O+	c #352314",
"P+	c #4A3717",
"Q+	c #997F36",
"R+	c #BDA042",
"S+	c #B9A044",
"T+	c #A78E3E",
"U+	c #B49B49",
"V+	c #DFCE7C",
"W+	c #E9D586",
"X+	c #6F6336",
"Y+	c #241504",
"Z+	c #412C04",
"`+	c #221107",
" @	c #211004",
".@	c #2B1609",
"+@	c #5F4D2C",
"@@	c #CBAF68",
"#@	c #B0964D",
"$@	c #977E41",
"%@	c #BCA753",
"&@	c #AB9547",
"*@	c #5F4F28",
"=@	c #311E0F",
"-@	c #3F2E11",
";@	c #8A762E",
">@	c #C6AC4C",
",@	c #C6AD56",
"'@	c #AA9342",
")@	c #A88E42",
"!@	c #CEB562",
"~@	c #DCC673",
"{@	c #786A37",
"]@	c #3D2B02",
"^@	c #5D4D2A",
"/@	c #C1A55F",
"(@	c #B19647",
"_@	c #AC9248",
":@	c #D8C56B",
"<@	c #BDAA52",
"[@	c #605323",
"}@	c #241707",
"|@	c #33280C",
"1@	c #857532",
"2@	c #D0B559",
"3@	c #D7B968",
"4@	c #B19448",
"5@	c #A3873F",
"6@	c #BAA04F",
"7@	c #C7AE5D",
"8@	c #6E6131",
"9@	c #3E2B03",
"0@	c #4C3E1C",
"a@	c #B5994B",
"b@	c #B89B44",
"c@	c #C4A957",
"d@	c #EEE190",
"e@	c #D5C46F",
"f@	c #726531",
"g@	c #251C06",
"h@	c #392F11",
"i@	c #94843F",
"j@	c #DEC466",
"k@	c #E3C26F",
"l@	c #B5944A",
"m@	c #A0833F",
"n@	c #AA8F45",
"o@	c #B09549",
"p@	c #5F5228",
"q@	c #211302",
"r@	c #392801",
"s@	c #3D2F0F",
"t@	c #AA8C3A",
"u@	c #BC9F41",
"v@	c #D2B65C",
"w@	c #F4ECAC",
"x@	c #EADD9B",
"y@	c #96864F",
"z@	c #3A2F11",
"A@	c #493F1B",
"B@	c #AF9F50",
"C@	c #EBD572",
"D@	c #E5CA72",
"E@	c #B09148",
"F@	c #9E8041",
"G@	c #9E8241",
"H@	c #9E7F41",
"I@	c #4E3E1E",
"J@	c #201202",
"K@	c #372700",
"L@	c #33250A",
"M@	c #977E33",
"N@	c #BC9E3F",
"O@	c #D7B850",
"P@	c #F3EAAB",
"Q@	c #F6EFC0",
"R@	c #C1B376",
"S@	c #63572B",
"T@	c #221805",
"U@	c #261B06",
"V@	c #766B31",
"W@	c #D1C567",
"X@	c #F1E67D",
"Y@	c #D8C76D",
"Z@	c #A68944",
"`@	c #997F41",
" #	c #907B40",
".#	c #87703D",
"+#	c #3E2C15",
"@#	c #251400",
"##	c #261906",
"$#	c #7C652B",
"%#	c #B6993D",
"&#	c #D7B646",
"*#	c #F1E087",
"=#	c #FAF4BD",
"-#	c #E7DA91",
";#	c #A6984F",
">#	c #574D1E",
",#	c #231A05",
"'#	c #271C06",
")#	c #635726",
"!#	c #B7AB58",
"~#	c #ECE483",
"{#	c #EEE789",
"]#	c #C5B35F",
"^#	c #9E8141",
"/#	c #8F783E",
"(#	c #7F6C3D",
"_#	c #6A5833",
":#	c #342211",
"<#	c #251208",
"[#	c #221106",
"}#	c #171000",
"|#	c #1B0E02",
"1#	c #59471E",
"2#	c #9D8638",
"3#	c #CDAE41",
"4#	c #EFD061",
"5#	c #F8F099",
"6#	c #F8F194",
"7#	c #E0D56D",
"8#	c #ABA149",
"9#	c #6F662B",
"0#	c #4B431B",
"a#	c #3C3112",
"b#	c #3F3211",
"c#	c #4F4118",
"d#	c #76672F",
"e#	c #B4A85B",
"f#	c #E6DD88",
"g#	c #F4EE9B",
"h#	c #E1D386",
"i#	c #B1984E",
"j#	c #947940",
"k#	c #7E6A3F",
"l#	c #715D3D",
"m#	c #533F29",
"n#	c #2F1A0C",
"o#	c #291B06",
"p#	c #422E08",
"q#	c #35280F",
"r#	c #76632D",
"s#	c #B3963D",
"t#	c #E5BE56",
"u#	c #F5E779",
"v#	c #F7F583",
"w#	c #F6F47D",
"x#	c #EAE56F",
"y#	c #D1C860",
"z#	c #AFA652",
"A#	c #9C9148",
"B#	c #9E9247",
"C#	c #B4A257",
"D#	c #D4C479",
"E#	c #EDE59E",
"F#	c #F6F3B1",
"G#	c #ECE39B",
"H#	c #C6B267",
"I#	c #9B8243",
"J#	c #846A40",
"K#	c #6C5840",
"L#	c #5C4D35",
"M#	c #3D2D1C",
"N#	c #2D180B",
"O#	c #403307",
"P#	c #1B0F02",
"Q#	c #4B3A1C",
"R#	c #877036",
"S#	c #C0A34F",
"T#	c #E8D56C",
"U#	c #F6F07B",
"V#	c #F7F881",
"W#	c #F8F784",
"X#	c #F7F488",
"Y#	c #F5F18C",
"Z#	c #F1ED8F",
"`#	c #F1EC96",
" $	c #F4EEAB",
".$	c #F6F4C5",
"+$	c #F8F6D0",
"@$	c #F0E8B4",
"#$	c #D2BF78",
"$$	c #A48C48",
"%$	c #866D40",
"&$	c #6C5741",
"*$	c #59423A",
"=$	c #453226",
"-$	c #2F1C0E",
";$	c #241107",
">$	c #2B1A08",
",$	c #48360B",
"'$	c #221606",
")$	c #554326",
"!$	c #846C3A",
"~$	c #BAA14F",
"{$	c #E2D26A",
"]$	c #F2EB7E",
"^$	c #F8F495",
"/$	c #F9F7A9",
"($	c #F9F7BC",
"_$	c #F9F7CB",
":$	c #FAF7D6",
"<$	c #F9F6DC",
"[$	c #F6F2D0",
"}$	c #EBE1AA",
"|$	c #CCBA75",
"1$	c #A48B4B",
"2$	c #836D3F",
"3$	c #6C5540",
"4$	c #4F433C",
"5$	c #40312D",
"6$	c #2B1912",
"7$	c #271905",
"8$	c #48370B",
"9$	c #251A0C",
"0$	c #514026",
"a$	c #7D6439",
"b$	c #A88E49",
"c$	c #CBB85F",
"d$	c #E1D37B",
"e$	c #EBE198",
"f$	c #EFE7B0",
"g$	c #F0E9BB",
"h$	c #ECE5B7",
"i$	c #E5DBA3",
"j$	c #D6C780",
"k$	c #B9A55A",
"l$	c #977F44",
"m$	c #7B643F",
"n$	c #5F4E40",
"o$	c #423A3D",
"p$	c #333030",
"q$	c #241914",
"r$	c #1B0D03",
"s$	c #1A0C01",
"t$	c #291600",
"u$	c #2B190C",
"v$	c #4B3425",
"w$	c #645133",
"x$	c #826C3C",
"y$	c #9E8647",
"z$	c #B39C55",
"A$	c #BDA85F",
"B$	c #BEAB60",
"C$	c #B7A35B",
"D$	c #A99150",
"E$	c #947B43",
"F$	c #7D663F",
"G$	c #64533E",
"H$	c #4B403A",
"I$	c #392C38",
"J$	c #2E202E",
"K$	c #2B1B16",
"L$	c #443008",
"M$	c #261407",
"N$	c #2D190D",
"O$	c #37251A",
"P$	c #453427",
"Q$	c #564231",
"R$	c #644E39",
"S$	c #6D553C",
"T$	c #6E593F",
"U$	c #69563F",
"V$	c #614E3F",
"W$	c #53433C",
"X$	c #43373A",
"Y$	c #342B3A",
"Z$	c #2A2034",
"`$	c #291A22",
" %	c #2B1812",
".%	c #211602",
"+%	c #3A2901",
"@%	c #2E1B10",
"#%	c #301D17",
"$%	c #322123",
"%%	c #31252F",
"&%	c #2B2535",
"*%	c #272336",
"=%	c #281E34",
"-%	c #261B2D",
";%	c #28191F",
">%	c #2B1813",
",%	c #2C170C",
"'%	c #231402",
")%	c #452E06",
"!%	c #261307",
"~%	c #221302",
"{%	c #331E00",
"]%	c #1E1500",
"^%	c #1F0E05",
"/%	c #1D0E04",
"(%	c #1F0F05",
"_%	c #1C0C01",
"  . + + + + + + @ #       $ % + + + + + + + + + + + + + + + + + + + + + + + + + + + % & * ",
"= - ; ; ; ; ; ; > , , , = ' + ; ; ; ; ; ; ; ; ; ; ; ; ; ; ; ; ; ; ; ; ; ; ; ; ; ; ; + & * ",
") ; ; ; ; ; ; ; ; ; ; ; > ! + ; ; ; ; ; ; ; ; ; ; ; ; ; ; ; ; ; ; ; ; ; ; ; ; ; ; ; + & * ",
") ; ; ; ; ; ; ; ; ; ; ; > ! + ; ; ; ; ; ; ; ; ; ; ; ; ; ; ; ; ; ; ; ; ; ; ; ; ; ; - ~ & * ",
", { { { { { ] ; ; ; ; ; > ! + ; ; ; ; ; ; ; ; ; ; ; ; ; ; ; ; ; ; ; { { { { { { ) =   & * ",
"^ ^ ^ ^ ^ / ( > > > > > ( _ : > > > > > > > > > > > > > > > > > > > < ^ ^ ^ ^ ^ ^ ^   & * ",
"$ $ $ $ $ ' [ _ _ _ _ _ [ } | _ _ _ _ _ _ _ _ _ _ _ _ _ _ _ _ _ _ _ ' $ $ $ $ $ $ $ 1 & * ",
"2 2 2 2 2 2 2 2 2 2 2 2 2 2 2 2 2 2 2 3 4               5 + + + + + + + + + + :       6 * ",
"2 2 2 2 2 2 2 2 2 2 2 2 7 8 9 0 a b c d e f g h i , , , { ; ; ; ; ; ; ; ; ; j k / / / l * ",
"2 2 2 2 2 2 2 2 2 2 2 m n o p q r s t u v w x y z A ; ; ; ; ; ; ; ; ; ; ; ; B / / / / l * ",
"2 2 2 2 2 2 2 2 2 2 C D E F G H I J K L M N O P Q R S ; ; ; ; ; ; ; ; ; j B < / / / / T U ",
"2 2 2 2 2 2 2 2 2 V W X Y Z `  ...+.@.#.$.%.&.*.=.-.;.>.; ; ; ; ; ; ,.{ k < / / / / / '.).",
"2 2 2 2 2 2 2 2 !.~.{.].^./.(._.:.<.[.}.|.1.2.3.4.5.6.7.8.> > > > > < ^ ^ ^ ^ ^ ^ ^ ^ 9.0.",
"2 2 2 2 2 2 2 a.b.c.d.e.f.g.h.i.j.k.l.m.n.o.p.q.r.s.t.u.v.w.! ! ! ! ' ' ' ' ' ' ' ' ' x.y.",
"      $ '     z.A.B.C.D.E.F.G.H.I.J.K.L.M.N.O.P.Q.R.S.T.U.V.+ ! 2 2 2 2 2 2 W.      W.X.Y.",
"/ / / W.  Z.`. +.+++@+#+$+%+&+*+=+-+;+>+,+'+)+!+~+{+]+^+/+(+_+:+2 2 2 2 2 2 4 <+/ / . x.y.",
"/ / / W.5 ; [+}+|+1+2+3+4+5+6+7+; ; ; 8+9+0+a+b+c+d+e+f+g+h+i+j+2 2 2 2 2 2 2 ! / / / k+l+",
"/ / / W.5 ; m+n+o+p+q+r+s+t+u+; ; ; ; ; ; v+w+x+y+z+A+B+C+D+E+! 2 2 2 2 2 2 2 1 ! <+/ F+G+",
"/ / / W.5 ; H+I+J+K+L+M+N+O+; ; ; ; ; ; ; > P+Q+R+S+T+U+V+W+X+! 2 2 2 2 2 2 2 $ ! <+<+Y+Z+",
"`+`+`+W. @.@+@@@#@$@%@&@*@=@.@.@.@.@.@.@.@.@-@;@>@,@'@)@!@~@{@! 2 2 2 2 2 2 2 W.`+`+  X.]@",
"' ' ' } | j+^@/@(@_@:@<@[@}@j+j+j+j+j+j+j+j+|@1@2@3@4@5@6@7@8@} 2 2 2 2 2 2 2 } ' ' $ X.9@",
"2 2 2 2 2 2 0@a@b@c@d@e@f@g@2 2 2 2 2 2 2 2 h@i@j@k@l@m@n@o@p@2 2 2 2 2 2 2 2 2 2 2 2 q@r@",
"2 2 2 2 2 2 s@t@u@v@w@x@y@z@2 2 2 2 2 2 2 2 A@B@C@D@E@F@G@H@I@j+j+j+j+j+j+j+j+j+j+j+! J@K@",
"2 2 2 2 2 2 L@M@N@O@P@Q@R@S@T@2 2 2 2 2 2 U@V@W@X@Y@Z@`@ #.#+#.@.@.@.@.@.@.@.@.@.@.@B '.@#",
"2 2 2 2 2 2 ##$#%#&#*#=#-#;#>#,#2 2 2 2 '#)#!#~#{#]#^#/#(#_#:#; ; ; ; ; ; ; ; ; ; k <#[#}#",
"2 2 2 2 2 2 |#1#2#3#4#5#6#7#8#9#0#a#b#c#d#e#f#g#h#i#j#k#l#m#n#; ; ; ; ; ; ; ; ; ; , / o#p#",
"2 2 2 2 2 2 2 q#r#s#t#u#v#w#x#y#z#A#B#C#D#E#F#G#H#I#J#K#L#M#N#; ; ; ; ; ; ; ; ; ] , / F+O#",
"2 2 2 2 2 2 2 P#Q#R#S#T#U#V#W#X#Y#Z#`# $.$+$@$#$$$%$&$*$=$-$; ; ; ; ; ; ; ; k Z.Z.;$/ >$,$",
"2 2 2 2 2 2 2 2 '$)$!$~${$]$^$/$($_$:$<$[$}$|$1$2$3$4$5$6$+ + + + + + + + + ~         7$8$",
"' ' ' ' ' ' ' ' $ 9$0$a$b$c$d$e$f$g$h$i$j$k$l$m$n$o$p$q$! ! ! ! r$' ' ' ' ' ' ' ' ' $ s$t$",
"^ ^ ^ ^ ^ ^ ^ ^ . 2 u$v$w$x$y$z$A$B$C$D$E$F$G$H$I$J$K$> > > > > - ^ ^ ^ ^ ^ ^ ^ ^ ^   x.L$",
"/ / / / / / / / . 2 M$N$O$P$Q$R$S$T$U$V$W$X$Y$Z$`$ %; ; ; ; ; ; j { { { { { { { { { : .%+%",
"/ / / / / / / / . 2 M$; ; N$@%#%$%%%&%*%=%-%;%>%,%; ; ; ; ; ; ; ; ; ; ; ; ; ; ; ; ; + '%)%",
"/ / / / / / / / . 2 !%; ; ; ; ; ; ; ; ; ; ; ; ; ; ; ; ; ; ; ; ; ; ; ; ; ; ; ; ; ; ; + ~%{%",
"/ / / / / / / / . 2 ^ , , , , , , , k ; ; ; ; ; ; ; ; ; ; ; ; ; ; ; ; ; ; ; ; ; ; ; + s$]%",
"                ! 2 !               ~ + + + + + + + + + + + + + + + + + + + + + + + % & * ",
"1 $ $ $ $ $ $ $ $ $ $ $ $ $ $ $ 2 2 2 2 2 2 2 2 2 3 $ $ $ $ $ $ $ 2 2 2 2 2 2 2 2 2 2 & * ",
"  ^ ^ ^ ^ ^ ^ ^ ^ ^ ^ ^ ^ ^ ^ . 3 2 2 2 2 2 2 2 2 W.^ ^ ^ ^ ^ ^ ^%2 2 2 2 2 2 2 2 2 2 & * ",
"  / / / / / / / / / / / / / / <+3 2 2 2 2 2 2 2 2 $ j+j+j+j+j+j+W.2 2 2 2 2 2 2 2 2 2 & * ",
"  / / / / / / / / / / / / / / <+3 2 2 2 2 2 2 2 2 2 2 2 2 2 2 2 2 2 2 2 2 2 2 2 2 2 2 & * ",
"  / / / / / / / / / / / / / / <+3 2 2 2 2 2 2 2 2 2 2 2 2 2 2 2 2 2 2 2 2 2 2 2 2 2 2 & * ",
"  / / / / / / / / / / / / / / <+3 /%. (%$ 2 2 2 2 2 2 2 2 2 2 2 2 2 2 2 $ (%W.2 2 2 2 & * ",
"r$                            4 2 !     $ 2 2 2 2 2 2 2 2 2 2 2 2 2 2 2 1   ' 2 2 2 2 & * ",
"& & & & & & & & & & & & & & & & & & & & & & & & & & & & & & & & & & & & & & & & & & & _%* ",
"* * * * * * * * * * * * * * * * * * * * * * * * * * * * * * * * * * * * * * * * * * * * * "};
