/* XPM */
static char * Exit_open_xpm[] = {
"45 45 889 2",
"  	c #1E0E04",
". 	c #200F05",
"+ 	c #241206",
"@ 	c #231106",
"# 	c #1F0E04",
"$ 	c #190B02",
"% 	c #1F0F04",
"& 	c #1A0B01",
"* 	c #281000",
"= 	c #251207",
"- 	c #281408",
"; 	c #2C170A",
"> 	c #2A1609",
", 	c #261308",
"' 	c #1A0C02",
") 	c #281509",
"! 	c #1C0D03",
"~ 	c #2D170D",
"{ 	c #402430",
"] 	c #CBB5CA",
"^ 	c #D7C1D6",
"/ 	c #D7BED6",
"( 	c #D7BAD6",
"_ 	c #DBC4DA",
": 	c #F7DDF6",
"< 	c #FCE1FC",
"[ 	c #FDDFFD",
"} 	c #FEDCFE",
"| 	c #FEDDFE",
"1 	c #FEE6FE",
"2 	c #B784B2",
"3 	c #BD87AE",
"4 	c #C48AAA",
"5 	c #BD84A1",
"6 	c #BF88A1",
"7 	c #BE8AA5",
"8 	c #C790AD",
"9 	c #C98BAA",
"0 	c #C788A9",
"a 	c #BF85A7",
"b 	c #C58EB2",
"c 	c #C18CAE",
"d 	c #BE87A5",
"e 	c #C5859F",
"f 	c #C98AA5",
"g 	c #B179A5",
"h 	c #2E0628",
"i 	c #3B172A",
"j 	c #201005",
"k 	c #291509",
"l 	c #522F44",
"m 	c #FFECFF",
"n 	c #B89FA5",
"o 	c #150000",
"p 	c #140000",
"q 	c #0E0016",
"r 	c #0D003D",
"s 	c #040040",
"t 	c #040045",
"u 	c #0C004B",
"v 	c #0D0049",
"w 	c #0B0045",
"x 	c #0B0030",
"y 	c #120010",
"z 	c #0E0000",
"A 	c #140100",
"B 	c #190600",
"C 	c #160400",
"D 	c #170500",
"E 	c #180200",
"F 	c #1D0000",
"G 	c #200300",
"H 	c #190200",
"I 	c #150400",
"J 	c #120600",
"K 	c #1B0C00",
"L 	c #1B0200",
"M 	c #190000",
"N 	c #C0A8A6",
"O 	c #C395C4",
"P 	c #3C023A",
"Q 	c #3A1427",
"R 	c #221006",
"S 	c #231107",
"T 	c #AE99AC",
"U 	c #B79EBC",
"V 	c #090504",
"W 	c #E7E4C5",
"X 	c #E4E0D4",
"Y 	c #1B1448",
"Z 	c #0B025B",
"` 	c #0C0564",
" .	c #11096E",
"..	c #0F0872",
"+.	c #0E0675",
"@.	c #09036F",
"#.	c #0A085C",
"$.	c #0D0F36",
"%.	c #DFE1E0",
"&.	c #E7E4C1",
"*.	c #EBE8A3",
"=.	c #EFEF8D",
"-.	c #EDF07F",
";.	c #E8E77B",
">.	c #F4EF77",
",.	c #FBF259",
"'.	c #FBF24B",
").	c #F6F34E",
"!.	c #F8FB56",
"~.	c #EDF44C",
"{.	c #F7F650",
"].	c #F2ED6B",
"^.	c #0A0500",
"/.	c #C1A3AD",
"(.	c #30012B",
"_.	c #42103A",
":.	c #D3BBD3",
"<.	c #0E001F",
"[.	c #E0DAFF",
"}.	c #0B0452",
"|.	c #09026C",
"1.	c #6156D6",
"2.	c #6353DA",
"3.	c #6852D1",
"4.	c #6453D3",
"5.	c #5256DE",
"6.	c #5560ED",
"7.	c #5758E6",
"8.	c #5453DB",
"9.	c #5B5FDD",
"0.	c #06077B",
"a.	c #0D0670",
"b.	c #130B47",
"c.	c #E1E0CB",
"d.	c #EDEFB0",
"e.	c #252100",
"f.	c #EAE57F",
"g.	c #FFFD45",
"h.	c #FBF815",
"i.	c #FAF817",
"j.	c #F5F717",
"k.	c #FBFF25",
"l.	c #F3F91D",
"m.	c #FCF91E",
"n.	c #FCF83D",
"o.	c #F3F17A",
"p.	c #BDA47C",
"q.	c #320020",
"r.	c #4C114B",
"s.	c #180B02",
"t.	c #170A01",
"u.	c #C9B4C8",
"v.	c #210D19",
"w.	c #0F0D1B",
"x.	c #161050",
"y.	c #120A6F",
"z.	c #03007B",
"A.	c #110488",
"B.	c #1A0177",
"C.	c #C0A8FF",
"D.	c #6259CC",
"E.	c #5655D4",
"F.	c #5959ED",
"G.	c #5355F8",
"H.	c #5054FE",
"I.	c #5255FF",
"J.	c #554EFF",
"K.	c #6058E1",
"L.	c #0C0C42",
"M.	c #101010",
"N.	c #161200",
"O.	c #EFEA8C",
"P.	c #F5F229",
"Q.	c #FFFF01",
"R.	c #FFFF04",
"S.	c #FAFB00",
"T.	c #FBFF08",
"U.	c #FFFF10",
"V.	c #FFFC03",
"W.	c #FFFC22",
"X.	c #F4F156",
"Y.	c #BFA862",
"Z.	c #2A0010",
"`.	c #5D155C",
" +	c #221105",
".+	c #200E03",
"++	c #210B14",
"@+	c #BAA7B9",
"#+	c #120000",
"$+	c #ECF09B",
"%+	c #E8E69B",
"&+	c #120F00",
"*+	c #121445",
"=+	c #0A065A",
"-+	c #120249",
";+	c #CBACE5",
">+	c #D5A8D1",
",+	c #280142",
"'+	c #6053D7",
")+	c #5558FF",
"!+	c #4F57FF",
"~+	c #5A59FC",
"{+	c #5B58DB",
"]+	c #080651",
"^+	c #13120D",
"/+	c #F1EE8D",
"(+	c #FFFE35",
"_+	c #FFFB00",
":+	c #FCF800",
"<+	c #FFFF0A",
"[+	c #FCFA05",
"}+	c #FFFF0B",
"|+	c #FFF600",
"1+	c #FEF416",
"2+	c #FAF54F",
"3+	c #C9B360",
"4+	c #2E000E",
"5+	c #60195E",
"6+	c #281409",
"7+	c #241106",
"8+	c #2E0D22",
"9+	c #BDAABC",
"0+	c #150300",
"a+	c #F0F769",
"b+	c #F2F54E",
"c+	c #F0F47C",
"d+	c #DCE1E5",
"e+	c #0D0D4B",
"f+	c #170843",
"g+	c #C9A8DD",
"h+	c #D9A6CF",
"i+	c #D4A7E2",
"j+	c #6655C5",
"k+	c #5C5EE5",
"l+	c #5055D7",
"m+	c #555DE6",
"n+	c #565DF6",
"o+	c #4B50EC",
"p+	c #5B59EA",
"q+	c #6561C0",
"r+	c #100E19",
"s+	c #EEEC97",
"t+	c #F9F732",
"u+	c #FFFF02",
"v+	c #FFFF03",
"w+	c #FCFC04",
"x+	c #FBFA02",
"y+	c #FFFF09",
"z+	c #FFFB19",
"A+	c #F7F54B",
"B+	c #BFAB55",
"C+	c #270007",
"D+	c #5A1658",
"E+	c #32102F",
"F+	c #BDA8BD",
"G+	c #190900",
"H+	c #F5FC60",
"I+	c #EDF727",
"J+	c #EEF857",
"K+	c #DFE5D9",
"L+	c #0E094C",
"M+	c #140050",
"N+	c #C7A9FF",
"O+	c #1A0072",
"P+	c #6452C0",
"Q+	c #635BB1",
"R+	c #A8A5E8",
"S+	c #F9F7FF",
"T+	c #A3A4E5",
"U+	c #565CCC",
"V+	c #565CD6",
"W+	c #5A5FBB",
"X+	c #9C9CD8",
"Y+	c #69667B",
"Z+	c #F3EFB2",
"`+	c #F4F336",
" @	c #FCFD01",
".@	c #FCFF05",
"+@	c #FBFF06",
"@@	c #F4FC00",
"#@	c #FCFF00",
"$@	c #FFFF22",
"%@	c #EAF14C",
"&@	c #BFB263",
"*@	c #270009",
"=@	c #5E175B",
"-@	c #251406",
";@	c #321F00",
">@	c #371334",
",@	c #BBAABB",
"'@	c #ECEE80",
")@	c #F2FD72",
"!@	c #DAE889",
"~@	c #10182F",
"{@	c #0B0765",
"]@	c #14006F",
"^@	c #180288",
"/@	c #5C52EF",
"(@	c #625EE6",
"_@	c #A09DE0",
":@	c #FBF7FF",
"<@	c #FFFEFF",
"[@	c #F7F7FF",
"}@	c #9DA3F1",
"|@	c #5D63BB",
"1@	c #A5ABDF",
"2@	c #F9FCFF",
"3@	c #ABA5C9",
"4@	c #6C6342",
"5@	c #F3F147",
"6@	c #FFFF11",
"7@	c #FAFD10",
"8@	c #FBFF17",
"9@	c #F3FA16",
"0@	c #FAFF19",
"a@	c #FFFF0E",
"b@	c #F4F81B",
"c@	c #F2FA59",
"d@	c #BCAE63",
"e@	c #251306",
"f@	c #1F1300",
"g@	c #310F2B",
"h@	c #B9A7B8",
"i@	c #1E0000",
"j@	c #E4DBD6",
"k@	c #0D153A",
"l@	c #000F5C",
"m@	c #00077A",
"n@	c #020890",
"o@	c #060392",
"p@	c #000092",
"q@	c #5754FD",
"r@	c #5753DB",
"s@	c #000005",
"t@	c #A6A8A5",
"u@	c #F9FFFF",
"v@	c #F3F9FF",
"w@	c #565B92",
"x@	c #01051E",
"y@	c #A0A0B8",
"z@	c #F9EFFF",
"A@	c #796B6A",
"B@	c #F9F16A",
"C@	c #FDFB2D",
"D@	c #F9F929",
"E@	c #F8F933",
"F@	c #FAF84E",
"G@	c #F9F744",
"H@	c #FEF91B",
"I@	c #FFFC23",
"J@	c #F1F151",
"K@	c #C1AB5F",
"L@	c #2A0009",
"M@	c #5F165B",
"N@	c #251305",
"O@	c #311B00",
"P@	c #33102D",
"Q@	c #B8A0B7",
"R@	c #140012",
"S@	c #140B3A",
"T@	c #030775",
"U@	c #000696",
"V@	c #00089C",
"W@	c #000099",
"X@	c #0000A2",
"Y@	c #5859FF",
"Z@	c #5758FF",
"`@	c #5858DE",
" #	c #ADABDA",
".#	c #080808",
"+#	c #000100",
"@#	c #F7FCFF",
"##	c #F8FDFF",
"$#	c #A5AAC7",
"%#	c #000205",
"&#	c #020413",
"*#	c #FFF5FF",
"=#	c #6F6280",
"-#	c #F2E797",
";#	c #150D00",
">#	c #140F00",
",#	c #F8F46E",
"'#	c #120900",
")#	c #1B1000",
"!#	c #FDF528",
"~#	c #FFF921",
"{#	c #FFFB5F",
"]#	c #C5AB61",
"^#	c #2B000B",
"/#	c #5E145C",
"(#	c #221402",
"_#	c #362201",
":#	c #301021",
"<#	c #170028",
"[#	c #10093D",
"}#	c #080959",
"|#	c #080C77",
"1#	c #000282",
"2#	c #04089F",
"3#	c #0200A9",
"4#	c #5955FF",
"5#	c #4B51FF",
"6#	c #5059DC",
"7#	c #A5A6DC",
"8#	c #000007",
"9#	c #030000",
"0#	c #F7FEFF",
"a#	c #A0ABAF",
"b#	c #000500",
"c#	c #00050F",
"d#	c #FBF6FF",
"e#	c #0D0340",
"f#	c #0D0200",
"g#	c #B6AA82",
"h#	c #B2AA7B",
"i#	c #0C0400",
"j#	c #BFB28F",
"k#	c #110700",
"l#	c #FFFC38",
"m#	c #F7F318",
"n#	c #F5EE55",
"o#	c #C7AC67",
"p#	c #2B000E",
"q#	c #5E145D",
"r#	c #1B0C03",
"s#	c #201201",
"t#	c #3B2901",
"u#	c #30141B",
"v#	c #9C879A",
"w#	c #0D000C",
"x#	c #000000",
"y#	c #060300",
"z#	c #000013",
"A#	c #00004C",
"B#	c #06048B",
"C#	c #0200A3",
"D#	c #5C57FF",
"E#	c #4F52F7",
"F#	c #5C62DC",
"G#	c #9EA0D1",
"H#	c #040000",
"I#	c #FFFFFA",
"J#	c #FFFFFD",
"K#	c #AAAFA9",
"L#	c #000300",
"M#	c #00000B",
"N#	c #140B4A",
"O#	c #040007",
"P#	c #B1A99E",
"Q#	c #FFFDFB",
"R#	c #060000",
"S#	c #FFFBFA",
"T#	c #0F0700",
"U#	c #FCF93A",
"V#	c #FDFD1F",
"W#	c #F7F459",
"X#	c #C2AA64",
"Y#	c #2A000E",
"Z#	c #5D145E",
"`#	c #211006",
" $	c #211005",
".$	c #33191C",
"+$	c #976C86",
"@$	c #ECF485",
"#$	c #F7F15B",
"$$	c #F7EC82",
"%$	c #EAE0F8",
"&$	c #08016B",
"*$	c #070596",
"=$	c #5250EF",
"-$	c #605BED",
";$	c #5D57C1",
">$	c #A5A8CB",
",$	c #020403",
"'$	c #AEADA9",
")$	c #FDF8F2",
"!$	c #FFFAF1",
"~$	c #FFF8F1",
"{$	c #0E0603",
"]$	c #ACA6B4",
"^$	c #A79FCE",
"/$	c #130E2C",
"($	c #090800",
"_$	c #ABAD7E",
":$	c #FFFFF4",
"<$	c #010002",
"[$	c #FDFCFA",
"}$	c #070800",
"|$	c #F3F83A",
"1$	c #F5FB1D",
"2$	c #EFF450",
"3$	c #C2AF63",
"4$	c #27000E",
"5$	c #5B145F",
"6$	c #281707",
"7$	c #372500",
"8$	c #2E1811",
"9$	c #8F6778",
"0$	c #0E0700",
"a$	c #E9F257",
"b$	c #FDF82D",
"c$	c #FDF15F",
"d$	c #170A1C",
"e$	c #100878",
"f$	c #00018D",
"g$	c #09058E",
"h$	c #6650BC",
"i$	c #7D63A0",
"j$	c #FFF5F6",
"k$	c #FFFDE3",
"l$	c #FFF9DE",
"m$	c #FFFBE1",
"n$	c #FFF9E1",
"o$	c #160000",
"p$	c #FFF7F3",
"q$	c #806671",
"r$	c #7A685C",
"s$	c #EBE8A1",
"t$	c #060A00",
"u$	c #FFFFEF",
"v$	c #ABACB1",
"w$	c #070700",
"x$	c #F9F949",
"y$	c #F7F92A",
"z$	c #F3F75A",
"A$	c #BDAC5E",
"B$	c #26000C",
"C$	c #5B145D",
"D$	c #291707",
"E$	c #331D00",
"F$	c #2D170F",
"G$	c #865C6D",
"H$	c #110500",
"I$	c #EDF56B",
"J$	c #F6F54F",
"K$	c #F3ED8D",
"L$	c #0E074D",
"M$	c #05009A",
"N$	c #010197",
"O$	c #0C0071",
"P$	c #885C8D",
"Q$	c #FFEFE8",
"R$	c #E4B17C",
"S$	c #ECB66E",
"T$	c #EDAC6A",
"U$	c #F0B073",
"V$	c #E8B47B",
"W$	c #290000",
"X$	c #300000",
"Y$	c #E6AB7F",
"Z$	c #E8AD83",
"`$	c #986C2D",
" %	c #F8EA7F",
".%	c #0A0B00",
"+%	c #ACAE98",
"@%	c #A6A9AE",
"#%	c #AAA9A5",
"$%	c #FCF15B",
"%%	c #FEF341",
"&%	c #F2EF62",
"*%	c #C1AF67",
"=%	c #5C145A",
"-%	c #241504",
";%	c #412C04",
">%	c #221107",
",%	c #211004",
"'%	c #2B1609",
")%	c #7F5566",
"!%	c #140600",
"~%	c #E9F07C",
"{%	c #ECE982",
"]%	c #181400",
"^%	c #0A0D78",
"/%	c #0000AA",
"(%	c #0001A1",
"_%	c #19087A",
":%	c #8A5776",
"<%	c #F1AC8D",
"[%	c #F1AD66",
"}%	c #F2A44F",
"|%	c #FFA762",
"1%	c #FF9B61",
"2%	c #FF9B66",
"3%	c #FF9F6D",
"4%	c #FBA576",
"5%	c #F7AA76",
"6%	c #F1AC69",
"7%	c #9C6916",
"8%	c #F3E077",
"9%	c #111000",
"0%	c #ACAB97",
"a%	c #080300",
"b%	c #140900",
"c%	c #FEF46E",
"d%	c #F4F073",
"e%	c #BCA861",
"f%	c #270005",
"g%	c #5C1459",
"h%	c #3D2B02",
"i%	c #180B01",
"j%	c #190C02",
"k%	c #1D0D03",
"l%	c #775063",
"m%	c #150200",
"n%	c #F0F09A",
"o%	c #ECE5D5",
"p%	c #0B083F",
"q%	c #000989",
"r%	c #0003A9",
"s%	c #0001AA",
"t%	c #090080",
"u%	c #83588D",
"v%	c #E5ABA0",
"w%	c #EDAC72",
"x%	c #4C0000",
"y%	c #AF2701",
"z%	c #C61D06",
"A%	c #D21200",
"B%	c #D3240F",
"C%	c #9C2715",
"D%	c #3C0000",
"E%	c #F1B577",
"F%	c #906A21",
"G%	c #F4E7A3",
"H%	c #060500",
"I%	c #060200",
"J%	c #040002",
"K%	c #FFFEFA",
"L%	c #FFFFEC",
"M%	c #FFFFD8",
"N%	c #060E00",
"O%	c #E7E97C",
"P%	c #C4B165",
"Q%	c #3E2B03",
"R%	c #745061",
"S%	c #EEEEA6",
"T%	c #0B0529",
"U%	c #0F0C65",
"V%	c #000B64",
"W%	c #000C72",
"X%	c #000489",
"Y%	c #0E0383",
"Z%	c #1F0157",
"`%	c #8B5B81",
" &	c #E8A998",
".&	c #FCA07B",
"+&	c #5E0000",
"@&	c #C11A08",
"#&	c #E0160C",
"$&	c #C91107",
"%&	c #530000",
"&&	c #F3AE84",
"*&	c #91610D",
"=&	c #FEE487",
"-&	c #0E0600",
";&	c #FFFFE1",
">&	c #AEA9A3",
",&	c #060002",
"'&	c #FFF8F5",
")&	c #AFB0A2",
"!&	c #F3FFE7",
"~&	c #000A00",
"{&	c #EBF08A",
"]&	c #C1AE62",
"^&	c #211302",
"/&	c #392801",
"(&	c #765260",
"_&	c #1A0E00",
":&	c #E2E8A0",
"<&	c #111147",
"[&	c #0F0B55",
"}&	c #0B0600",
"|&	c #00002F",
"1&	c #0A0267",
"2&	c #120384",
"3&	c #1D006C",
"4&	c #934E87",
"5&	c #FBA4AC",
"6&	c #FEA682",
"7&	c #520000",
"8&	c #AA2111",
"9&	c #A72515",
"0&	c #460000",
"a&	c #E2B260",
"b&	c #987600",
"c&	c #FDEA5F",
"d&	c #0D0900",
"e&	c #AFB285",
"f&	c #AEADA8",
"g&	c #030004",
"h&	c #B2ADA9",
"i&	c #030200",
"j&	c #AFB390",
"k&	c #040A00",
"l&	c #ECEF86",
"m&	c #BEAC62",
"n&	c #290009",
"o&	c #551454",
"p&	c #201202",
"q&	c #372700",
"r&	c #956A80",
"s&	c #110200",
"t&	c #E9ECB5",
"u&	c #0B0A2C",
"v&	c #000015",
"w&	c #F3EC9E",
"x&	c #EDE485",
"y&	c #070100",
"z&	c #000020",
"A&	c #0D056A",
"B&	c #230C80",
"C&	c #240045",
"D&	c #90577A",
"E&	c #DCA795",
"F&	c #E4A884",
"G&	c #410000",
"H&	c #3B0000",
"I&	c #E0A877",
"J&	c #936F11",
"K&	c #FFEB59",
"L&	c #FFEF57",
"M&	c #F2F081",
"N&	c #060800",
"O&	c #030100",
"P&	c #ADAAB1",
"Q&	c #010000",
"R&	c #B6B69E",
"S&	c #0C0D00",
"T&	c #E5E897",
"U&	c #E4E98F",
"V&	c #C1AC7D",
"W&	c #2A0013",
"X&	c #52174C",
"Y&	c #271408",
"Z&	c #251400",
"`&	c #895B83",
" *	c #BBA1AA",
".*	c #0C0700",
"+*	c #E8E7AF",
"@*	c #F2F58A",
"#*	c #ECF276",
"$*	c #EFF28B",
"%*	c #EEECB1",
"&*	c #010023",
"**	c #0D0C45",
"=*	c #181144",
"-*	c #250B24",
";*	c #88636B",
">*	c #8B5F60",
",*	c #936556",
"'*	c #90663C",
")*	c #FFDB90",
"!*	c #FFEB76",
"~*	c #FFED65",
"{*	c #F5F26F",
"]*	c #EAEE8D",
"^*	c #090500",
"/*	c #FFFDFF",
"(*	c #A1A4A9",
"_*	c #030900",
":*	c #E1E68C",
"<*	c #ECF18D",
"[*	c #B6BB83",
"}*	c #B49F9E",
"|*	c #2E0027",
"1*	c #251208",
"2*	c #221106",
"3*	c #171000",
"4*	c #C596CD",
"5*	c #B599AF",
"6*	c #C4A89A",
"7*	c #C0A87C",
"8*	c #BAAB66",
"9*	c #BAAF5D",
"0*	c #BCAE56",
"a*	c #BFAD6D",
"b*	c #C4A89C",
"c*	c #B39CB8",
"d*	c #A8A3DD",
"e*	c #A8A1E4",
"f*	c #B99CD4",
"g*	c #BD9BBE",
"h*	c #BCA5AF",
"i*	c #B8A297",
"j*	c #C7A48E",
"k*	c #C9A279",
"l*	c #CBA165",
"m*	c #CBA75D",
"n*	c #C1AD57",
"o*	c #BDAD6F",
"p*	c #BBA39F",
"q*	c #B59EB8",
"r*	c #B6A6C0",
"s*	c #B7A7A7",
"t*	c #BCA96F",
"u*	c #C1AD70",
"v*	c #B9A59A",
"w*	c #C497C0",
"x*	c #291B06",
"y*	c #422E08",
"z*	c #190904",
"A*	c #1B0804",
"B*	c #1B0803",
"C*	c #1D0602",
"D*	c #1E0505",
"E*	c #250318",
"F*	c #24022A",
"G*	c #1E0137",
"H*	c #1F0038",
"I*	c #24002E",
"J*	c #20001C",
"K*	c #110004",
"L*	c #0F0000",
"M*	c #200000",
"N*	c #2D0002",
"O*	c #2E0306",
"P*	c #2A0609",
"Q*	c #260A10",
"R*	c #280D1B",
"S*	c #2A1218",
"T*	c #2C150E",
"U*	c #2C160B",
"V*	c #2B170A",
"W*	c #403307",
"X*	c #190A05",
"Y*	c #13010B",
"Z*	c #080004",
"`*	c #170111",
" =	c #200F04",
".=	c #251308",
"+=	c #241107",
"@=	c #2B1A08",
"#=	c #48360B",
"$=	c #A787AC",
"%=	c #B7A9C0",
"&=	c #1D031B",
"*=	c #271905",
"==	c #48370B",
"-=	c #1B0C02",
";=	c #FBEAFB",
">=	c #AE9CB2",
",=	c #200917",
"'=	c #1B0D03",
")=	c #1A0C01",
"!=	c #291600",
"~=	c #F9E9F9",
"{=	c #B8A3AA",
"]=	c #2A150A",
"^=	c #443008",
"/=	c #261407",
"(=	c #F8E3F8",
"_=	c #BFAAAF",
":=	c #2D170A",
"<=	c #2B160A",
"[=	c #211602",
"}=	c #3A2901",
"|=	c #F5E6F5",
"1=	c #AC99AD",
"2=	c #231402",
"3=	c #452E06",
"4=	c #261307",
"5=	c #F1E0F0",
"6=	c #B5A1BC",
"7=	c #221302",
"8=	c #331E00",
"9=	c #ECDAEB",
"0=	c #B8A0BA",
"a=	c #1E1500",
"b=	c #E8D6E8",
"c=	c #B9A0B6",
"d=	c #E7D6E7",
"e=	c #B8A1B5",
"f=	c #180A01",
"g=	c #E4D4E4",
"h=	c #B7A2B5",
"i=	c #1F0E05",
"j=	c #E4D3E4",
"k=	c #E2CFE2",
"l=	c #BC9EB8",
"m=	c #E1CBE0",
"n=	c #C29ABF",
"o=	c #1D0E04",
"p=	c #1F0F05",
"q=	c #D4BED4",
"r=	c #C994C8",
"s=	c #1D0D04",
"t=	c #927D91",
"u=	c #AB74AB",
"v=	c #1C0C01",
"  . + + + + + + @ #       $ % + + + + + + + + + + + + + + + + + + + + + + + + + + + % & * ",
"= - ; ; ; ; ; ; > , , , = ' + ; ; ; ; ; ; ; ; ; ; ; ; ; ; ; ; ; ; ; ; ; ; ; ; ; ; ; + & * ",
") ; ; ; ; ; ; ; ; ; ; ; > ! + ; ; ; ; ; ; ; ; ; ; ; ; ; ; ; ; ; ; ; ; ; ~ ; ; ; ; ; + & * ",
") ; ; ; ; ; ; { ] ^ / ^ ( _ : < [ } | 1 2 3 4 5 6 7 8 9 0 a b c d e f g h i ; ; ; - j & * ",
", k k k k k l m n o p q r s t u v w x y z A B C D B E F G H I J K L M N O P Q k ) =   & * ",
"R R R R R S T U V W X Y Z `  ...+.@.#.$.%.&.*.=.-.;.>.,.'.).!.~.~.{.].^./.(._.R R R   & * ",
"$ $ $ $ $ ' :.<.[.}.|.1.2.3.4.5.6.7.8.9.0.a.b.c.d.e.f.g.h.i.j.k.l.m.n.o.p.q.r.$ $ $ s.& * ",
"t.t.t.t.t.t.u.v.w.x.y.z.A.B.C.D.E.F.G.H.I.J.K.L.M.N.O.P.Q.R.S.T.U.V.W.X.Y.Z.`. +      .+* ",
"t.t.t.t.t.++@+#+$+%+&+*+=+-+;+>+,+'+)+!+!+I.~+{+]+^+/+(+_+:+<+[+}+|+1+2+3+4+5+6+S S S 7+* ",
"t.t.t.t.t.8+9+0+a+b+c+d+e+f+g+h+i+j+k+l+m+n+o+p+q+r+s+t+u+v+R.w+x+y+z+A+B+C+D+S S S S 7+* ",
"t.t.t.t.t.E+F+G+H+I+J+K+L+M+N+O+P+Q+R+S+T+U+V+W+X+Y+Z+`+u+ @.@+@@@#@$@%@&@*@=@S S S S -@;@",
"t.t.t.t.t.>@,@o '@)@!@~@{@]@^@/@(@_@:@<@[@}@|@1@2@3@4@5@6@7@8@9@0@a@b@c@d@*@=@S S S S e@f@",
"t.t.t.t.t.g@h@i@j@k@l@m@n@o@p@q@r@:@s@t@u@v@w@x@y@z@A@B@C@D@E@F@G@H@I@J@K@L@M@R R R R N@O@",
"t.t.t.t.t.P@Q@R@S@T@U@V@W@X@Y@Z@`@ #.#+#@###$#%#&#*#=#-#;#>#,#'#)#!#~#{#]#^#/#' ' ' ' (#_#",
"      $ ' :#Q@<#[#}#|#1#2#3#4#5#6#7#8#9#<@0#a#b#c#d#e#f#g#h#i#j#k#l#m#n#o#p#q#      r#s#t#",
"S S S r#  u#v#w#x#y#z#A#B#C#D#E#F#G#8#H#I#J#K#L#M#:@N#O#P#Q#R#S#T#U#V#W#X#Y#Z#`#S S . (#_#",
"S S S r# $.$+$f#@$#$$$%$&$*$=$-$;$>$,$'$)$!$~${$]$^$/$($_$:$<$[$}$|$1$2$3$4$5$! S S S 6$7$",
"S S S r# $8$9$0$a$b$c$d$e$f$g$h$i$j$k$l$m$n$o$o p$q$r$s$t$u$v$J#w$x$y$z$A$B$C$s.! `#S D$E$",
"S S S r# $F$G$H$I$J$K$L$M$N$O$P$Q$R$S$T$U$V$W$X$Y$Z$`$ %.%+%@%#%^.$%%%&%*%C+=%$ ! `#`#-%;%",
">%>%>%r#,%'%)%!%~%{%]%^%/%(%_%:%<%[%}%|%1%2%3%4%5%6%7%8%9%0%s@9#a%b%c%d%e%f%g%r#>%>%  s#h%",
"' ' ' i%j%k%l%m%n%o%p%q%r%s%t%u%v%w%x%y%z%A%B%C%D%E%F%G%H%I%J%K%L%M%N%O%P%f%g%i%' ' $ s#Q%",
"t.t.t.t.t.t.R%C S%T%U%V%W%X%Y%Z%`% &.&+&@&#&$&%&&&*&=&-&;&>&,&'&)&!&~&{&]&C+=%t.t.t.t.^&/&",
"t.t.t.t.t.t.(&_&:&<&[&R#}&|&1&2&3&4&5&6&7&8&9&0&a&b&c&d&e&f&g&h&i&j&k&l&m&n&o&k%k%k%! p&q&",
"t.t.t.t.t.t.r&s&t&u&v&w&x&y&z&A&B&C&D&E&F&G&H&I&J&K&L&M&N&O&P&Q&R&S&T&U&V&W&X&'%'%'%Y&e@Z&",
"t.t.t.t.t.t.`& *.*y&+*@*#*$*%*R#&***=*-*;*>*,*'*)*!*~*{*]*^*/*(*_*:*<*[*}*|*F$; ; 6+1*2*3*",
"t.t.t.t.t.t.t.4*5*6*7*8*9*0*a*b*c*d*e*f*g*h*i*j*k*l*m*n*o*p*q*r*s*t*u*v*w*; ; ; ; , S x*y*",
"t.t.t.t.t.t.t.t.t.t.z*A*B*C*D*E*F*G*H*I*J*K*L*o M*N*O*P*Q*R*S*T*U*; ; ; ; ; ; ; V*, S D$W*",
"t.t.t.t.t.t.t.t.t.t.t.t.t.t.t.t.t.t.t.t.X*Y*Z*`*r# =; ; ; ; ; ; ; ; ; ; ; ; 6+.=.=+=S @=#=",
"t.t.t.t.t.t.t.t.t.t.t.t.t.t.t.t.t.t.t.t.t.$=%=&=' ! + + + + + + + + + + + + j         *===",
"' ' ' ' ' ' ' ' $ t.-=! ! ! ! ! ! ! ! ! ! ;=>=,=! ! ! ! ! ! ! ! '=' ' ' ' ' ' ' ' ' $ )=!=",
"R R R R R R R R . t.e@> > > > > > > > > > ~={=]=> > > > > > > > - R R R R R R R R R   (#^=",
"S S S S S S S S . t./=; ; ; ; ; ; ; ; ; ; (=_=:=; ; ; ; ; ; ; ; <=k k k k k k k k k  +[=}=",
"S S S S S S S S . t./=; ; ; ; ; ; ; ; ; ; |=1=; ; ; ; ; ; ; ; ; ; ; ; ; ; ; ; ; ; ; + 2=3=",
"S S S S S S S S . t.4=; ; ; ; ; ; ; ; ; ; 5=6=; ; ; ; ; ; ; ; ; ; ; ; ; ; ; ; ; ; ; + 7=8=",
"S S S S S S S S . t.R , , , , , , , 6+; ; 9=0=; ; ; ; ; ; ; ; ; ; ; ; ; ; ; ; ; ; ; + )=a=",
"                ! t.!               j + + b=c=+ + + + + + + + + + + + + + + + + + + % & * ",
"s.$ $ $ $ $ $ $ $ $ $ $ $ $ $ $ t.t.t.t.t.d=e=t.t.f=$ $ $ $ $ $ $ t.t.t.t.t.t.t.t.t.t.& * ",
"  R R R R R R R R R R R R R R . f=t.t.t.t.g=h=t.t.r#R R R R R R i=t.t.t.t.t.t.t.t.t.t.& * ",
"  S S S S S S S S S S S S S S `#f=t.t.t.t.j=e=t.t.$ k%k%k%k%k%k%r#t.t.t.t.t.t.t.t.t.t.& * ",
"  S S S S S S S S S S S S S S `#f=t.t.t.t.k=l=t.t.t.t.t.t.t.t.t.t.t.t.t.t.t.t.t.t.t.t.& * ",
"  S S S S S S S S S S S S S S `#f=t.t.t.t.m=n=t.t.t.t.t.t.t.t.t.t.t.t.t.t.t.t.t.t.t.t.& * ",
"  S S S S S S S S S S S S S S `#f=o=. p=$ q=r=t.t.t.t.t.t.t.t.t.t.t.t.t.$ p=r#t.t.t.t.& * ",
"'=                            s=t.!     $ t=u=t.t.t.t.t.t.t.t.t.t.t.t.t.s.  ' t.t.t.t.& * ",
"& & & & & & & & & & & & & & & & & & & & & & & & & & & & & & & & & & & & & & & & & & & v=* ",
"* * * * * * * * * * * * * * * * * * * * * * * * * * * * * * * * * * * * * * * * * * * * * "};
